<?xml version="1.0" encoding="utf-8"?>
<!-- Generator: Adobe Illustrator 19.1.0, SVG Export Plug-In . SVG Version: 6.00 Build 0)  -->
<svg version="1.1"
	 id="svg4195" xmlns:rdf="http://www.w3.org/1999/02/22-rdf-syntax-ns#" xmlns:svg="http://www.w3.org/2000/svg" xmlns:cc="http://creativecommons.org/ns#" xmlns:dc="http://purl.org/dc/elements/1.1/"
	 xmlns="http://www.w3.org/2000/svg" xmlns:xlink="http://www.w3.org/1999/xlink" x="0px" y="0px" viewBox="-20 -102.7 800 800"
	 style="enable-background:new -20 -102.7 800 800;" xml:space="preserve">
<style type="text/css">
	.st0{fill:#428EB2;}
	.st1{fill:url(#SVGID_1_);}
	.st2{fill:#FFFFFF;}
	.st3{fill-opacity:0.1347;}
</style>
<circle id="circle5606" class="st0" cx="380" cy="297.3" r="400"/>
<linearGradient id="SVGID_1_" gradientUnits="userSpaceOnUse" x1="280.575" y1="346.0829" x2="24.5538" y2="566.1843">
	<stop  offset="0" style="stop-color:#000000;stop-opacity:0.42"/>
	<stop  offset="1" style="stop-color:#000000;stop-opacity:0"/>
</linearGradient>
<path class="st1" d="M171.3,124.1L-19.6,315c7.5,171.6,123,315.1,280.2,364.2c69.8-69.5,139.5-139.3,208.9-209.7L171.3,124.1z"/>
<path id="path4147" class="st2" d="M380,63c-68.5,33.5-145.6,60.6-208.7,61.1c38.8,239.4,61,331.9,208.7,407.6
	C527.7,456,549.9,363.5,588.7,124.1C525.6,123.6,448.6,96.5,380,63L380,63z"/>
<path id="path4183" class="st3" d="M380,63v234.3h175.9c11.8-47.7,21.6-104.4,32.7-173.3C525.6,123.6,448.5,96.5,380,63z M380,297.3
	H204.1c29.2,118,70.7,180.5,175.9,234.4V297.3z"/>
</svg>
