<?xml version="1.0" encoding="utf-8"?>
<!-- Generator: Adobe Illustrator 19.1.0, SVG Export Plug-In . SVG Version: 6.00 Build 0)  -->
<svg version="1.1"
	 id="svg4155" xmlns:rdf="http://www.w3.org/1999/02/22-rdf-syntax-ns#" xmlns:svg="http://www.w3.org/2000/svg" xmlns:cc="http://creativecommons.org/ns#" xmlns:dc="http://purl.org/dc/elements/1.1/"
	 xmlns="http://www.w3.org/2000/svg" xmlns:xlink="http://www.w3.org/1999/xlink" x="0px" y="0px" viewBox="-20 -102.7 800 800"
	 style="enable-background:new -20 -102.7 800 800;" xml:space="preserve">
<style type="text/css">
	.st0{fill:#DA5414;}
	.st1{fill:url(#SVGID_1_);}
	.st2{fill:#FFFFFF;}
</style>
<circle id="path4712" class="st0" cx="380" cy="297.3" r="400"/>
<linearGradient id="SVGID_1_" gradientUnits="userSpaceOnUse" x1="462.0266" y1="235.8203" x2="104.0264" y2="596.8201" gradientTransform="matrix(1 0 0 1 0 -1.44)">
	<stop  offset="0" style="stop-color:#000000;stop-opacity:0.4"/>
	<stop  offset="1" style="stop-color:#000000;stop-opacity:0"/>
</linearGradient>
<path class="st1" d="M344.5,695.7L586,454.2L459.1,327.3c38.1-60.9,29.1-140-21.6-190.8c-30.1-30.1-69.7-45.2-109.2-45.2
	s-79,15.1-109.2,45.2L-13.6,369.2C18.2,544.4,164.2,679.9,344.5,695.7z"/>
<path class="st2" d="M437.5,136.4c-60.3-60.3-158-60.3-218.3,0s-60.3,158,0,218.3c50.8,50.7,129.9,59.7,190.8,21.6l126.9,126.9
	l49.1-49.1L459.1,327.3C497.2,266.4,488.2,187.3,437.5,136.4z M401.1,318.4c-40.2,40.2-105.3,40.2-145.5,0s-40.2-105.3,0-145.5
	s105.3-40.2,145.5,0C441.3,213,441.3,278.2,401.1,318.4z"/>
</svg>
