<?xml version="1.0" encoding="utf-8"?>
<!-- Generator: Adobe Illustrator 19.1.0, SVG Export Plug-In . SVG Version: 6.00 Build 0)  -->
<svg version="1.1"
	 id="svg5346" xmlns:rdf="http://www.w3.org/1999/02/22-rdf-syntax-ns#" xmlns:svg="http://www.w3.org/2000/svg" xmlns:cc="http://creativecommons.org/ns#" xmlns:dc="http://purl.org/dc/elements/1.1/"
	 xmlns="http://www.w3.org/2000/svg" xmlns:xlink="http://www.w3.org/1999/xlink" x="0px" y="0px" viewBox="-20 -102.7 800 800"
	 style="enable-background:new -20 -102.7 800 800;" xml:space="preserve">
<style type="text/css">
	.st0{fill:#428EB2;}
	.st1{opacity:0.42;fill:url(#SVGID_1_);enable-background:new    ;}
	.st2{fill:#FFFFFF;}
</style>
<circle id="path5900" class="st0" cx="380" cy="297.3" r="400"/>
<linearGradient id="SVGID_1_" gradientUnits="userSpaceOnUse" x1="379.0443" y1="-82.5153" x2="99.0089" y2="157.806" gradientTransform="matrix(1 0 0 -1 0 341.4778)">
	<stop  offset="0" style="stop-color:#000000"/>
	<stop  offset="1" style="stop-color:#000000;stop-opacity:0"/>
</linearGradient>
<path class="st1" d="M354.5,696.5l199.6-199.6l-88.6-91.6L385.3,359l168.8-168.9l-58.5-60.4l0.7-1.6l-30.9-29.6l-55,55l-50,50.2
	c-40.7,69.1-124,57.8-168.9,49.8L5.9,439.1C60.2,582.5,194.6,686.5,354.5,696.5z"/>
<path class="st2" d="M510.6,386.6C510.5,386.6,510.5,386.6,510.6,386.6c-16.9,0-33.1,6.8-45.1,18.8l-165-95.3
	c0.9-4.3,1.4-8.7,1.4-13.1c0-4.9-0.6-9.8-1.8-14.5l164.4-94.9c0.1,0.1,0.1,0.1,0.2,0.2c0.7,0.7,1.3,1.4,2,2l0.1,0.1
	c11.4,10.8,26.8,17.5,43.8,17.5c27.5,0,50.9-17.5,59.8-41.9c2.5-6.8,3.9-14.2,3.9-21.9c0-35.2-28.5-63.8-63.7-63.8l0,0l0,0
	c-35.2,0-63.8,28.6-63.8,63.8l0,0c0,3.2,0.3,6.5,0.8,9.7l-167,96.4c-11.7-10.5-26.9-16.4-42.6-16.4c-35.2,0-63.7,28.5-63.8,63.8
	c0,35.2,28.5,63.7,63.8,63.8c16.3,0,31.9-6.2,43.8-17.4l166,95.9c-0.7,3.7-1,7.4-1,11.2c0,35.2,28.5,63.7,63.8,63.8
	c35.2,0,63.7-28.5,63.8-63.8C574.3,415.2,545.8,386.7,510.6,386.6z"/>
</svg>
