<?xml version="1.0" encoding="utf-8"?>
<!-- Generator: Adobe Illustrator 19.1.0, SVG Export Plug-In . SVG Version: 6.00 Build 0)  -->
<svg version="1.1"
	 id="svg4181" xmlns:rdf="http://www.w3.org/1999/02/22-rdf-syntax-ns#" xmlns:svg="http://www.w3.org/2000/svg" xmlns:cc="http://creativecommons.org/ns#" xmlns:dc="http://purl.org/dc/elements/1.1/"
	 xmlns="http://www.w3.org/2000/svg" xmlns:xlink="http://www.w3.org/1999/xlink" x="0px" y="0px" viewBox="-20 -102.7 800 800"
	 style="enable-background:new -20 -102.7 800 800;" xml:space="preserve">
<style type="text/css">
	.st0{fill:#445B24;}
	.st1{opacity:0.42;fill:url(#SVGID_1_);enable-background:new    ;}
	.st2{fill:#FFFFFF;}
</style>
<circle id="circle4149" class="st0" cx="380" cy="297.3" r="400"/>
<linearGradient id="SVGID_1_" gradientUnits="userSpaceOnUse" x1="397.3225" y1="248.6848" x2="61.3225" y2="530.6849" gradientTransform="matrix(1 0 0 1 0 -1.44)">
	<stop  offset="0" style="stop-color:#000000"/>
	<stop  offset="1" style="stop-color:#000000;stop-opacity:0"/>
</linearGradient>
<path class="st1" d="M409.3,121.5c-10.7,10.7-21.3,21.2-31.8,31.8C332.2,92,283.8,68.2,239.8,68.6c-37.4,0.3-71.5,18-97.7,44.8
	L-19.4,274.9c-0.4,7.4-0.6,14.9-0.6,22.4C-20,487,112.1,645.9,289.4,687l90.6-90.6l256-273.6C744.5,206.7,567.1-39.3,409.3,121.5z"
	/>
<path id="path4142" class="st2" d="M239.8,68.6C125.1,69.5,41.1,234,124.1,322.7L380,596.4l256-273.6
	c115.4-123.3-92.2-393.4-256-166.1C334,92.8,284.6,68.2,239.8,68.6z M380,178.9c148-232.8,353.9,18.9,246.3,134.2L380,577.1
	l-244.1-264c-75.8-87.7,2.5-227.8,110.5-229.7C304.9,83.2,356.1,146.3,380,178.9z"/>
</svg>
