<?xml version="1.0" encoding="utf-8"?>
<!-- Generator: Adobe Illustrator 21.0.0, SVG Export Plug-In . SVG Version: 6.00 Build 0)  -->
<svg version="1.1" id="Ebene_1" xmlns="http://www.w3.org/2000/svg" xmlns:xlink="http://www.w3.org/1999/xlink" x="0px" y="0px"
	 viewBox="0 0 566.9 566.9" style="enable-background:new 0 0 566.9 566.9;" xml:space="preserve">
<style type="text/css">
	.st0{fill:#FFFFFF;}
	.st1{fill:#30383B;}
	.st2{fill-rule:evenodd;clip-rule:evenodd;fill:#30383B;}
</style>
<path class="st0" d="M483.2,268.7c0,0-0.3-24.9-5.1-57.7c-4-28.8-11-60-23-86c-3.5-8-7.4-15.7-11.8-22.8
	C404.3,38.8,326.6,37,283.5,36.9c-43.2,0.1-120.9,1.9-159.8,65.4c-4.4,7.2-8.3,14.9-11.8,22.8c-12.1,25.9-19,57.2-23,86
	c-4.9,32.8-5.1,57.7-5.1,57.7s-0.2,5.5-0.1,14.8c-0.1,9.3,0.1,14.8,0.1,14.8s0.3,24.9,5.1,57.7c4,28.8,11,60,23,85.9
	c3.5,8,7.4,15.7,11.8,22.8c38.9,63.5,116.6,65.3,159.8,65.4c43.2-0.1,120.9-1.9,159.8-65.4c4.4-7.2,8.3-14.9,11.8-22.8
	c12.1-25.9,19-57.2,23-85.9c4.9-32.8,5.1-57.7,5.1-57.7s0.2-5.5,0.1-14.8C483.4,274.2,483.2,268.7,483.2,268.7z M473.3,297.6
	c0,0-0.2,23.8-4.9,55.3c-3.8,27.6-10.4,57.5-21.9,82.4c-3.3,7.6-7,15-11.2,21.9c-37,60.8-110.8,62.5-151.8,62.6
	c-41-0.1-114.9-1.8-151.9-62.6c-4.2-6.9-7.9-14.2-11.2-21.9c-11.5-24.9-18.1-54.8-21.9-82.4c-4.6-31.5-4.9-55.3-4.9-55.3
	s-0.2-5.3-0.1-14.1c-0.1-8.9,0.1-14.1,0.1-14.1s0.2-23.8,4.9-55.3c3.8-27.6,10.4-57.5,21.9-82.4c3.3-7.6,7-15,11.2-21.9
	c37-60.8,110.8-62.5,151.9-62.6c41,0.1,114.9,1.8,151.8,62.6c4.2,6.9,7.9,14.2,11.2,21.9c11.5,24.9,18.1,54.8,21.9,82.4
	c4.6,31.5,4.9,55.3,4.9,55.3s0.2,5.3,0.1,14.1C473.5,292.3,473.3,297.6,473.3,297.6z"/>
<path class="st1" d="M120.4,435.3c3.3,7.6,7,15,11.2,21.9c37,60.8,110.8,62.5,151.9,62.6c41-0.1,114.9-1.8,151.8-62.6
	c4.2-6.9,7.9-14.2,11.2-21.9c11.5-24.9,18.1-54.8,21.9-82.4c4.6-31.5,4.9-55.3,4.9-55.3s0.2-5.3,0.1-14.1c0.1-8.9-0.1-14.1-0.1-14.1
	s-0.2-23.8-4.9-55.3c-3.8-27.6-10.4-57.5-21.9-82.4c-3.3-7.6-7-15-11.2-21.9c-37-60.8-110.8-62.5-151.8-62.7
	c-41,0.1-114.9,1.8-151.9,62.7c-4.2,6.9-7.9,14.2-11.2,21.9c-11.5,24.9-18.1,54.8-21.9,82.4c-4.6,31.5-4.9,55.3-4.9,55.3
	s-0.2,5.3-0.1,14.1c-0.1,8.9,0.1,14.1,0.1,14.1s0.2,23.8,4.9,55.3C102.3,380.5,108.9,410.4,120.4,435.3z"/>
<path class="st0" d="M393.9,283.3c-0.1-24.6-2.5-40.7-2.5-40.7s-6.3-45.3-11.4-58.4c-5-13.1-11.8-44.5-51.3-51.2
	c0,0-25-3.3-44.7-3.6h-1.9c-19.7,0.4-44.7,3.6-44.7,3.6c-39.5,6.7-46.3,38.1-51.3,51.2c-5,13.1-11.4,58.4-11.4,58.4
	s-1.8,16.3-1.6,40.7h0c0.1,24.6,2.5,40.7,2.5,40.7s6.3,45.3,11.4,58.4c5,13.1,11.8,44.5,51.3,51.2c0,0,25,3.2,44.7,3.6h1.9
	c19.7-0.4,44.7-3.6,44.7-3.6c39.5-6.7,46.3-38.1,51.3-51.2c5-13.1,11.4-58.4,11.4-58.4S394,307.7,393.9,283.3L393.9,283.3z"/>
<path class="st0" d="M312.3,84.5c-0.8-0.3-2.1-0.7-2.9-0.9l-5.2-1.4c-1.9-0.5-3.6-1.5-4.6-2.6c-0.8-1-1.2-2.3-1-3.7
	c0.5-3.9,3.8-6,8.8-5.4c3.5,0.4,9.5,4.3,9.6,4.3c0.9,0.6,2.4,0.5,3.3-0.1l6-4.7c1-0.7,0.6-1.5,0.4-1.9c-4.9-4.3-9.7-7.6-17.6-8.6
	c-12.4-1.5-21.4,4.7-22.7,15.4c-0.6,4.9,0.3,8.9,2.9,12.1c2.4,2.9,9.1,5.5,9.4,5.6c0.8,0.3,2.1,0.7,2.9,0.9l5.3,1.4
	c2.6,0.7,3.6,1.4,4.4,2.3c0.9,1,1.2,2.6,1,4.4c-0.5,4.1-3.9,5.9-10.1,5.1c-5-0.6-11.5-5.3-11.6-5.4c-0.9-0.7-2.4-0.6-3.3,0l-6,4.6
	c-0.4,0.4-1.3,1.3-0.5,2.3c5.9,5.2,10.6,8.5,19.8,9.5c0.6,0.1,1.3,0.1,1.9,0.2c0,0,0,0,0,0c12.2,0.8,20.8-5.3,22.1-15.4
	c0.7-5.4-0.4-9.7-3.1-13C318.1,85.7,312.6,84.6,312.3,84.5z"/>
<path class="st0" d="M425.3,179.8l10-2.2l0.5-0.1l5.3,25.7c0.2,1.2,1.4,2,2.6,1.7l6.6-1.5c1.2-0.3,1.9-1.5,1.7-2.7l-7.6-36.8
	c-0.2-1.2-1.4-2-2.6-1.7l-51.3,11.5c-0.6,0.1-1.1,0.5-1.4,1c-0.3,0.5-0.4,1.1-0.3,1.7l7.6,36.8c0.2,1,1.1,1.7,2.1,1.8
	c0.2,0,0.4,0,0.5-0.1l6.6-1.5c1.2-0.3,1.9-1.5,1.7-2.7L402,185l0.7-0.1l11-2.4l0.1,0.7l5,24c0.2,1.2,1.4,2,2.6,1.7l6.6-1.5
	c0.6-0.1,1.1-0.5,1.4-1c0.3-0.5,0.4-1.1,0.3-1.7l-5.1-24.7L425.3,179.8z"/>
<path class="st0" d="M113.2,352.3c-0.8-0.2-1.6-1-1.6-1.8l-0.9-8.5c-0.1-0.8,0.5-1.8,1.2-2.1l31.2-15.1l1.3-0.7l-35.2-9
	c-0.8-0.2-1.5-1-1.6-1.9l-0.9-8.5c-0.1-0.8,0.5-1.8,1.2-2.1l53.5-23.3c0.8-0.3,1.5,0.1,1.5,0.9l1.2,11.4c0.1,0.8-0.5,1.7-1.2,2
	l-32.8,13.4l-1.4,0.6l36.6,8.8c0.8,0.2,1.5,1,1.6,1.8l0.8,7.3c0.1,0.8-0.5,1.8-1.2,2.1L134,342.8l-1.3,0.6l36.3,7
	c0.8,0.2,1.6,1,1.6,1.8l1.2,11.4c0.1,0.8-0.5,1.3-1.3,1.2L113.2,352.3z"/>
<path class="st0" d="M128.6,417c-0.2-0.8,0.1-1.8,0.7-2.4l6.2-5c0.6-0.5,1-1.6,0.7-2.4l-6.3-20.7c-0.2-0.8-1.1-1.5-1.9-1.6l-7.9-0.8
	c-0.8-0.1-1.7-0.8-1.9-1.6l-3.2-10.7c-0.2-0.8,0.2-1.3,1-1.2l59,7.2c0.8,0.1,1.7,0.8,1.9,1.6l2.2,7.3c0.2,0.8-0.1,1.9-0.7,2.4
	l-45.1,38.8c-0.6,0.5-1.3,0.3-1.6-0.4L128.6,417z M162,388.5l-1.4-0.2l-19.5-2.1l-1.5-0.2l5,16.5l1.1-1L162,388.5z"/>
<path class="st0" d="M396.6,452.5l-4.3-5.7c-0.5-0.7-1.5-0.8-2.2-0.3L374.7,458c-0.7,0.5-0.8,1.5-0.3,2.1l3.9,5.2
	c0.5,0.7,1.5,0.8,2.2,0.3l7.5-5.6l0.9,1.2l0.4,0.6c1.9,2.6,2.8,5.2,2.6,7.9c-0.3,3-1.9,5.5-4.6,7.5c-2.5,1.9-5.1,2.6-7.8,2
	c-3.5-0.8-5.3-2.3-12.3-11.6c-7-9.3-7.8-11.4-7.7-14.9c0.2-2.7,1.6-5.1,4-6.9c4.6-3.4,12.3-0.1,12.3-0.1c0.8,0.3,2,0.2,2.6-0.3
	l6.4-4.8c0.4-0.3,1.6-1.5,0.1-2.6c-7.4-6.2-17.6-7.9-27.7-0.4c-5.1,3.8-8,8.7-8.9,14.7c-0.5,3.6,0,6.8,1.5,9.9c1.5,3,4.1,7.1,8,12.3
	c3.9,5.2,7.1,8.9,9.6,11.1c2.5,2.3,5.6,3.7,9.2,4.2c6.1,0.9,11.6-0.6,16.7-4.3c5.3-4,8.5-8.9,9.4-15.3
	C403.6,464.4,401.8,459.4,396.6,452.5z"/>
<path class="st0" d="M455.4,350.8c-0.1,0.8-0.9,1.7-1.6,2L418.2,368l-1.4,0.6l33.1,5.7c0.8,0.1,1.4,0.9,1.2,1.7l-1.4,8.1
	c-0.1,0.8-0.9,1.4-1.7,1.2l-53.4-9.2c-0.8-0.1-1.4-0.9-1.2-1.7l1.2-6.9c0.1-0.8,0.9-1.7,1.6-2l36.9-15.8l-1.4-0.3l-31.6-5.4
	c-0.8-0.1-1.4-0.9-1.2-1.7l1.4-8.1c0.1-0.8,0.9-1.4,1.7-1.2l53.4,9.2c0.8,0.1,1.4,0.9,1.2,1.7L455.4,350.8z"/>
<path class="st0" d="M265.3,70.5l10.2-0.6c0.6,0,1.1-0.3,1.5-0.8c0.4-0.4,0.6-1,0.6-1.6l-0.4-7c-0.1-1.2-1-2.1-2.4-2.1l-33,2.1
	c-0.6,0-1.1,0.3-1.5,0.7c-0.4,0.4-0.6,1-0.6,1.6l0.4,7c0.1,1.2,1,2.1,2.4,2.1c0,0,0,0,0,0l10.1-0.6l0.1,0.8l2.8,44.1
	c0.1,1.2,1.1,2.1,2.2,2.1l8.3-0.5c0.6,0,1.1-0.3,1.5-0.8c0.4-0.4,0.6-1,0.6-1.6l-2.8-44.1L265.3,70.5z M257.7,117.5L257.7,117.5
	L257.7,117.5L257.7,117.5z"/>
<path class="st0" d="M339.5,484.1l-1.4-15.9l0,0l-1.8-20.3c-0.1-1.1-1.1-2-2.3-1.9l-8.4,0.7c-1.1,0.1-2,1.1-1.9,2.3l1.9,21l0,0
	l1.3,14.8c0.5,6-2.7,10.1-8.3,10.6c-5.7,0.5-9.5-2.9-10-9l-1.5-16.6l-1.7-19.3c-0.1-1.1-1.1-2-2.3-1.9l-8.5,0.8
	c-1.1,0.1-2,1.1-1.9,2.3l1.7,18.9v0l1.5,17.3c1,11.4,10,19.2,21.9,19c0.6,0,1.2,0,1.8-0.1c6-0.5,11.3-3,14.9-7
	C338.2,495.6,340,490.1,339.5,484.1z"/>
<path class="st0" d="M272.2,449.5L272.2,449.5l5.1,0.3c0.8,0,1.5,0.8,1.4,1.6l-0.2,3.5l0,0l-0.2,4.3c-0.1,1.1-0.2,3-0.2,4.1
	l-0.1,1.5l-0.3,4.7l-1.1,19.2c-0.7,12.7-10.8,18.9-21.5,18.3c-5.1-0.3-8.9-1.6-12.3-4.6l-0.8-1l0,0c-0.6-0.8-0.6-1.8,0.2-2.5
	l4.8-4.2c0.8-0.7,2.2-0.7,3,0.1c0,0,2,2,5.7,2.2c5.5,0.3,9.3-2.7,9.6-9.4l1.1-18.7l0.3-4.7l0.1-1.5l0.1-2.1l-13.9-0.7
	c-1.1-0.1-1.8-1-1.6-2.1l1.6-7.2c0.3-1.1,1.4-1.9,2.5-1.9L272.2,449.5z"/>
<path class="st0" d="M218.9,497.3c7.9-3.2,10.8-10.2,13.9-17.5l1.7-3.9c1.6-3.7,3.1-7.2,3.8-10.9c0.6-3,0.5-5.8-0.2-8.5l0,0
	l-0.8-2.5c-2-4.7-6.1-8.5-12-11l-0.4-0.2c-0.4-0.2-0.7-0.4-1-0.5l-16.1-6.8c-1.1-0.5-2.4,0-2.9,1.2l-21,49.5
	c-0.1,0.1-0.1,0.3-0.1,0.5c-0.2,1,0.4,2,1.3,2.4l17.5,7.4C208.4,499,214.1,499.3,218.9,497.3z M204.6,485l-5-2.1l-0.7-0.3l13.9-32.7
	l0.7,0.3l6.2,2.6c3.6,1.4,5.2,3.4,5.9,6c0.3,1.2,0.4,2.4,0.1,3.9c-0.4,2.4-1.7,5.5-3.6,10.1c-3.3,7.8-5.1,11.3-7.8,12.7
	C214.3,485.6,210.6,487.6,204.6,485z"/>
<path class="st0" d="M372.2,72.2c-5.5-3.1-11.3-3.9-17.2-2.3c-3.6,1-6.5,2.8-8.8,5.5c-2.2,2.5-4.9,6.6-8,12.2
	c-3.1,5.5-5.3,9.9-6.3,13.1c-1.1,3.3-1.2,6.8-0.2,10.3c1.6,5.9,5.3,10.6,10.8,13.7c4,2.3,8.1,3.4,12.1,3.2c0,0,0,0,0,0
	c3.6-0.1,7.1-1.2,10.3-3.3c0.7-0.4,0.6-1.5,0.6-1.5l-4.1-10c-0.5-1.2-1.8-0.3-1.8-0.3l0,0c-3.4,3.4-7.3,4.1-11.2,1.8
	c-2.5-1.4-4-3.3-4.4-5.7c-0.7-3-0.1-5.2,5.5-15.1c5.6-9.9,7.2-11.6,10.1-12.5c2.2-0.8,4.6-0.5,7.1,0.9c3.9,2.2,5.3,5.8,4.2,10.5l0,0
	c0,0-0.5,1.7,1,1.5l10.7-1.5c0.8-0.1,1-0.9,1.1-1.2C383.9,83.5,379.9,76.6,372.2,72.2z"/>
<path class="st0" d="M112.6,202.9c-0.2,1.2,0.6,2.4,1.8,2.6l53.1,10.5c0.2,0,0.3,0,0.5,0c1,0,1.9-0.8,2.1-1.8l3.7-18.8
	c1.3-6.4,0.4-12.1-2.6-16.4c-4.8-7.2-12.3-8.6-20.2-10.1l-4.2-0.8c-4-0.8-7.7-1.6-11.5-1.5c-3,0.1-5.8,0.7-8.3,2l0,0l-2.3,1.3
	c-4.3,2.9-7.2,7.8-8.4,14.1L112.6,202.9z M162.1,195.7l-1.1,5.3l-0.2,0.7l-35.1-6.9l0.1-0.7l1.3-6.7c0.7-3.9,2.3-5.8,4.7-7.1
	c1.1-0.6,2.3-0.9,3.8-0.9c2.4-0.1,5.8,0.5,10.7,1.5c8.4,1.7,12.2,2.7,14.1,5.1C160.7,186,163.4,189.3,162.1,195.7z"/>
<path class="st0" d="M139.6,444.4c-0.6-0.8-0.5-1.8,0.2-2.3c15.1-10.9,30.2-21.9,45.3-32.8c0.7-0.5,1.6-0.3,2.1,0.3
	c1.7,2.3,3.3,4.5,5,6.8c0.5,0.7,0.4,1.6-0.3,2.2c-12.1,9.3-24.2,18.5-36.2,27.8l-1.2,0.9c5.4,7,12.1,15.2,17.9,21.9
	c0.6,0.7,0.6,1.7,0,2.3c-1.8,1.6-3.6,3.2-5.4,4.8c-0.6,0.6-1.7,0.4-2.3-0.3C155.9,465.8,147.5,455.3,139.6,444.4z"/>
<path class="st0" d="M435.8,137.1c-1.5-2.7-3.1-5.3-4.6-8c-0.7-1.1-2.2-1.6-3.2-1.1c-5.7,3.4-11.4,6.8-17.1,10.2l-0.6,0.3
	c-3-5-7-11.4-10.2-16.3l0.6-0.4c5.6-3.6,11.1-7.2,16.7-10.9c0.5-0.3,0.8-0.8,0.9-1.5c0.1-0.6-0.1-1.3-0.4-1.8
	c-1.7-2.6-3.4-5.1-5.1-7.7c-0.8-1.1-2.3-1.5-3.2-0.8c-14.5,10-28.9,20-43.4,30.1c-0.5,0.3-0.8,0.8-0.9,1.4c-0.1,0.6,0,1.2,0.4,1.7
	c1.5,2.3,3.1,4.5,4.6,6.8c0.6,1,2.1,1.3,3,0.7c5.7-3.7,11.4-7.4,17.1-11.2l0.6-0.4c3.1,4.8,6.6,10.3,9.5,15.3l0.4,0.7
	c-5.8,3.5-12.3,7.3-18.1,10.8c-1,0.6-1.4,2-0.7,3c1.4,2.3,2.8,4.7,4.1,7.1c0.4,0.7,1.1,1.1,1.9,1.1c0.4,0,0.8-0.1,1.1-0.3
	c15.4-8.6,30.7-17.2,46.1-25.7C436.2,139.8,436.5,138.3,435.8,137.1z"/>
<path class="st0" d="M235.7,98.3c-1.7-5.1-3.5-10.2-5.2-15.3l0,0c-2.2-6.5-4.4-13-6.7-19.5c-0.4-1.1-1.7-1.7-2.9-1.2
	c-3,1-5.9,2.1-8.9,3.2c-1.2,0.4-1.9,1.7-1.5,2.8c2.4,6.7,4.8,13.4,7.3,20l0,0c1.7,4.7,3.4,9.4,5.1,14.1c2.1,5.8-0.1,10.6-5.7,12.7
	c-5.6,2.1-10.3,0-12.6-5.8c-2.1-5.2-4.1-10.4-6.2-15.6c-2.4-6.1-4.8-12.1-7.2-18.2c-0.4-1.1-1.8-1.6-3-1.1c-3,1.2-5.9,2.4-8.8,3.6
	c-1.2,0.5-1.8,1.8-1.4,2.8c2.5,5.9,4.9,11.8,7.4,17.7c0,0,0,0,0,0c2.2,5.4,4.5,10.8,6.7,16.2c4.5,10.7,15.7,15.4,27.4,11.8
	c0.6-0.2,1.1-0.4,1.7-0.6c5.8-2.2,10.4-6,13.1-10.9C237.2,110,237.7,104.1,235.7,98.3z"/>
<path class="st0" d="M199,133.7c-1.8-1.4-3.7-2.8-5.6-4.2c-0.9-0.7-2.4-0.5-3.1,0.5c-4.8,6.4-9.4,12.9-14,19.4l-0.5,0.6
	c-3-2.1-7.1-4.9-10.1-6.9l0.4-0.6c4.4-6.4,9-12.8,13.7-19c0.8-1,0.6-2.4-0.3-3.2c-1.9-1.4-3.7-2.8-5.6-4.2c-0.9-0.7-2.4-0.4-3.2,0.6
	c-4.8,6.4-9.4,12.8-13.9,19.4l-0.4,0.6c-2.9-2-6.9-4.7-9.7-6.7l0.5-0.6c4.8-6.9,9.7-13.8,14.8-20.6c0.8-1.1,0.7-2.5-0.3-3.2
	c-1.8-1.4-3.7-2.8-5.6-4.2c-0.9-0.7-2.4-0.4-3.2,0.6c-7.6,10.1-14.9,20.5-21.9,31c-0.7,1.1-0.5,2.6,0.5,3.2
	c14.9,9.9,29.9,19.7,44.8,29.6c0.3,0.2,0.7,0.3,1.1,0.4c0.8,0,1.5-0.4,1.9-1c6.4-9.6,13.1-19.1,20-28.3
	C200.1,135.8,199.9,134.4,199,133.7z"/>
<path class="st0" d="M428.6,442.6c-0.4,0.8-1.3,1.2-2,0.8c-16.1-7.4-32.2-14.9-48.3-22.3c-0.7-0.3-1.1-1.2-0.7-1.9
	c4.7-10.4,9.1-20.9,13.2-31.5c0.3-0.8,1.1-1.1,1.9-0.8c2.1,0.8,4.3,1.7,6.4,2.5c0.7,0.3,1.1,1.2,0.8,1.9c-2.8,7.3-5.8,14.6-8.9,21.8
	l-0.6,1.4c3.1,1.4,8.9,3.9,12,5.3l0.7-1.4c3.1-7.1,6-14.2,8.8-21.4c0.3-0.8,1.2-1.2,1.9-0.9c2.1,0.8,4.3,1.7,6.4,2.5
	c0.7,0.3,1.1,1.2,0.8,2c-2.8,7.3-5.8,14.5-8.9,21.7l-0.6,1.4c3.3,1.4,9.2,4.1,12.5,5.5l0.6-1.5c3.3-7.6,6.5-15.4,9.5-23.1
	c0.3-0.8,1.2-1.2,1.9-0.9c2.1,0.8,4.3,1.7,6.4,2.5c0.8,0.3,1.1,1.2,0.8,2C438.7,419.8,433.8,431.3,428.6,442.6z"/>
<path class="st0" d="M455.2,285.9c-5.7-6.2-13-6.4-20.8-6.7l-4.1-0.2c-3.9-0.2-7.7-0.4-11.2,0.2c-2.9,0.5-5.4,1.5-7.7,3.1l0,0
	l-2,1.6c-3.6,3.4-5.7,8.5-6,14.7l0,0.4c0,0.4-0.1,0.8-0.1,1.1l-0.8,17.1c-0.1,1.2,0.9,2.2,2.1,2.3l52.5,2.3c0.2,0,0.3,0,0.5,0
	c1-0.2,1.7-1,1.8-2l0.8-18.5C460.4,295,458.7,289.7,455.2,285.9z M448.9,303.3l-0.2,5.3l0,0.7l-34.6-1.5l0-0.7l0.3-6.6
	c0.1-3.8,1.3-5.9,3.5-7.5c1-0.7,2.1-1.1,3.5-1.4c2.3-0.4,5.6-0.4,10.5-0.2c8.3,0.4,12.1,0.8,14.3,2.8
	C446.1,294.2,449.2,296.9,448.9,303.3z"/>
<path class="st2" d="M237.3,346.7v33.2v1.9h-15.8v-1.9c0,0,0-24.9,0-33.2H237.3z"/>
<polygon class="st2" points="328.2,346.7 328.2,379.9 328.2,381.9 344.1,381.9 344.1,379.9 344.1,346.7 "/>
<path class="st2" d="M284.1,323.4c-0.7-0.8-1.9-0.8-2.6,0L277,328c-0.8,0.8-1.6,1.6-1.8,1.9c-0.2,0.3-0.4,1.4-0.4,2.5v47.6v1.9h15.9
	v-1.9v-47.6c0-1.1-0.2-2.2-0.5-2.5c-0.3-0.3-1.1-1.2-1.8-2L284.1,323.4z"/>
<path class="st2" d="M258.6,332.6c16-10.3,22.7-21.6,22.7-21.7l1.7-2.8l1.7,2.8c0.1,0.1,6.8,11.4,22.7,21.7
	c8.3,5.4,18.5,6.5,25.6,6.5h0c4.3,0,8-0.4,10.4-0.8L318,295.1l7.4-6l-16-33.5l3.9-4.6l-15.8-34.3l7.7-4.7L283,160.9L260.8,212
	l7.7,4.7L252.6,251l3.9,4.6l-16,33.5l7.4,6l-25.3,43.1c2.3,0.3,6,0.8,10.4,0.8C240.1,339,250.3,337.9,258.6,332.6z"/>
<path class="st1" d="M211.6,335.4c0.6,1.1,1.5,2.1,2.5,2.9l24.3-41.4l-7-5.6l16.4-34.5l-3.9-4.6l5.3-11.6c0,0,0,0,0,0
	c-1.3-1.8-3.2-3.1-5.6-3.7c-2.8-0.7-5.6-0.1-7.8,1.3l0,0c-1.5,1-3,0.5-3.9-0.1v0c-0.8-0.5-1.7-0.9-2.7-1.1c-3.8-1-7.7,0.5-10,3.3
	c-1.1,1.4-2.7,1.5-3.8,1.3c-4.7-0.9-9.4,1.7-11.1,6.1c-0.6,1.7-2.1,2.3-3.2,2.4c-3.9,0.5-7.3,3.3-8.3,7.4c-0.2,0.7-0.2,1.3-0.3,2
	c0,1.8-1.1,2.9-2.1,3.4c-2.6,1.2-4.7,3.6-5.5,6.6c-0.5,1.9-0.3,3.9,0.3,5.6c0.6,1.7-0.1,3-0.9,3.9c-1.4,1.3-2.5,2.9-2.9,4.9
	c-0.8,3,0,6.1,1.7,8.4c1.1,1.5,0.8,3,0.3,4c-0.3,0.6-0.5,1.2-0.7,1.9c-1,4.1,0.6,8.2,3.8,10.5c1.4,0.9,1.7,2.3,1.7,3.4
	c-0.7,4.9,2.4,9.6,7.2,10.9c1.7,0.6,2.3,2,2.5,3c0.8,3.5,3.5,6.5,7.2,7.4c1,0.2,2,0.3,2.9,0.3C209.9,333.4,211,334.4,211.6,335.4z"
	/>
<path class="st1" d="M354.2,335.4c-0.6,1.1-1.5,2.1-2.5,2.9l-24.3-41.4l7-5.6l-16.4-34.5l3.9-4.6l-5.3-11.6c0,0,0,0,0,0
	c1.3-1.8,3.2-3.1,5.6-3.7c2.8-0.7,5.6-0.1,7.8,1.3l0,0c1.5,1,3,0.5,3.9-0.1v0c0.8-0.5,1.7-0.9,2.7-1.1c3.8-1,7.7,0.5,10,3.3
	c1.1,1.4,2.7,1.5,3.8,1.3c4.7-0.9,9.4,1.7,11.1,6.1c0.6,1.7,2.1,2.3,3.2,2.4c3.9,0.5,7.3,3.3,8.3,7.4c0.2,0.7,0.2,1.3,0.3,2
	c0,1.8,1.1,2.9,2.1,3.4c2.6,1.2,4.7,3.6,5.5,6.6c0.5,1.9,0.3,3.9-0.3,5.6c-0.6,1.7,0.1,3,0.9,3.9c1.4,1.3,2.5,2.9,2.9,4.9
	c0.8,3,0,6.1-1.7,8.4c-1.1,1.5-0.8,3-0.3,4c0.3,0.6,0.5,1.2,0.7,1.9c1,4.1-0.6,8.2-3.8,10.5c-1.4,0.9-1.7,2.3-1.7,3.4
	c0.7,4.9-2.4,9.6-7.2,10.9c-1.7,0.6-2.3,2-2.5,3c-0.8,3.5-3.5,6.5-7.2,7.4c-1,0.2-2,0.3-2.9,0.3
	C355.9,333.4,354.8,334.4,354.2,335.4z"/>
</svg>
