<?xml version="1.0" encoding="utf-8"?>
<!-- Generator: Adobe Illustrator 19.1.0, SVG Export Plug-In . SVG Version: 6.00 Build 0)  -->
<svg version="1.1"
	 id="svg4145" xmlns:rdf="http://www.w3.org/1999/02/22-rdf-syntax-ns#" xmlns:svg="http://www.w3.org/2000/svg" xmlns:cc="http://creativecommons.org/ns#" xmlns:dc="http://purl.org/dc/elements/1.1/"
	 xmlns="http://www.w3.org/2000/svg" xmlns:xlink="http://www.w3.org/1999/xlink" x="0px" y="0px" viewBox="-20 -102.7 800 800"
	 style="enable-background:new -20 -102.7 800 800;" xml:space="preserve">
<style type="text/css">
	.st0{fill:#30383B;}
	.st1{opacity:0.42;fill:url(#SVGID_1_);enable-background:new    ;}
	.st2{fill:#FFFFFF;}
</style>
<circle id="circle4977" class="st0" cx="380" cy="297.3" r="400"/>
<linearGradient id="SVGID_1_" gradientUnits="userSpaceOnUse" x1="357.9267" y1="267.5413" x2="-86.8051" y2="-134.9703" gradientTransform="matrix(1 0 0 -1 0 593.84)">
	<stop  offset="0" style="stop-color:#000000"/>
	<stop  offset="1" style="stop-color:#000000;stop-opacity:0"/>
</linearGradient>
<path class="st1" d="M-19.9,306.1c4.6,213.6,176.6,386,390.1,391.1l200.1-200.1V97.4H188.8L-19.9,306.1z"/>
<path id="rect4238" class="st2" d="M188.8,97.4v399.7h381.5V97.4H188.8L188.8,97.4z M224.7,135.1h309.7v285.5H224.7V135.1
	L224.7,135.1z M382.5,171.3c-31.3,0-56.7,25.4-56.7,56.7s25.4,56.7,56.7,56.7l0,0c31.3,0,56.7-25.4,56.7-56.7l0,0
	C439.2,196.7,413.8,171.3,382.5,171.3z M433.4,283.5c-13.9,12.8-32,19.8-50.9,19.9c-18.8,0-36.9-7.1-50.8-19.8
	c-28.1,18.6-45.3,51.4-45.3,86.6c0,0.5,0,1,0.1,1.5h192.2c0-0.5,0-1,0.1-1.5C478.7,334.9,461.6,302.1,433.4,283.5L433.4,283.5
	L433.4,283.5z"/>
</svg>
