<?xml version="1.0" encoding="utf-8"?>
<!-- Generator: Adobe Illustrator 19.1.0, SVG Export Plug-In . SVG Version: 6.00 Build 0)  -->
<svg version="1.1"
	 id="svg4149" xmlns:rdf="http://www.w3.org/1999/02/22-rdf-syntax-ns#" xmlns:svg="http://www.w3.org/2000/svg" xmlns:cc="http://creativecommons.org/ns#" xmlns:dc="http://purl.org/dc/elements/1.1/"
	 xmlns="http://www.w3.org/2000/svg" xmlns:xlink="http://www.w3.org/1999/xlink" x="0px" y="0px" viewBox="-20 -102.7 800 800"
	 style="enable-background:new -20 -102.7 800 800;" xml:space="preserve">
<style type="text/css">
	.st0{fill:#30383B;}
	.st1{opacity:0.42;fill:url(#SVGID_1_);enable-background:new    ;}
	.st2{fill:#FFFFFF;}
</style>
<circle id="circle6177" class="st0" cx="380" cy="297.3" r="400"/>
<linearGradient id="SVGID_1_" gradientUnits="userSpaceOnUse" x1="401.2726" y1="311.5817" x2="84.2726" y2="32.5816" gradientTransform="matrix(1 0 0 -1 0 593.84)">
	<stop  offset="0" style="stop-color:#000000"/>
	<stop  offset="1" style="stop-color:#000000;stop-opacity:0"/>
</linearGradient>
<path class="st1" d="M622.6,121.6H137.4c-7.1,0-13.4,3.1-17.7,8.1L-19,268.4c-0.7,9.5-1,19.1-1,28.9c0,220.9,179.1,400,400,400
	c1.7,0,3.3,0,5,0l252.8-252.8c5-4.3,8.1-10.6,8.1-17.7V144.9C645.9,132,635.5,121.6,622.6,121.6z"/>
<path class="st2" d="M622.6,121.6H137.4l0,0c-12.9,0-23.3,10.4-23.3,23.3v281.9c0,12.9,10.4,23.3,23.3,23.3h485.2
	c12.9,0,23.3-10.4,23.3-23.3V144.9C645.9,132,635.5,121.6,622.6,121.6z M515.3,285c0,74.4-60.3,134.7-134.7,134.7
	S245.9,359.4,245.9,285s60.3-134.7,134.7-134.7l0,0l0,0C455,150.2,515.3,210.6,515.3,285L515.3,285z M602.9,179.4H523
	c-9.6,0-17.3-7.7-17.3-17.3s7.7-17.3,17.3-17.3l0,0h79.9c9.6,0,17.3,7.7,17.3,17.3S612.5,179.4,602.9,179.4z"/>
<circle class="st2" cx="380.6" cy="285" r="84.1"/>
</svg>
