<?xml version="1.0" encoding="utf-8"?>
<!-- Generator: Adobe Illustrator 19.1.0, SVG Export Plug-In . SVG Version: 6.00 Build 0)  -->
<svg version="1.1"
	 id="svg4182" xmlns:rdf="http://www.w3.org/1999/02/22-rdf-syntax-ns#" xmlns:svg="http://www.w3.org/2000/svg" xmlns:cc="http://creativecommons.org/ns#" xmlns:dc="http://purl.org/dc/elements/1.1/"
	 xmlns="http://www.w3.org/2000/svg" xmlns:xlink="http://www.w3.org/1999/xlink" x="0px" y="0px" viewBox="-20 -102.7 800 800"
	 style="enable-background:new -20 -102.7 800 800;" xml:space="preserve">
<style type="text/css">
	.st0{fill:#428EB2;}
	.st1{fill:url(#SVGID_1_);}
	.st2{fill:#FFFFFF;}
</style>
<circle id="circle5571" class="st0" cx="380" cy="297.3" r="400"/>
<linearGradient id="SVGID_1_" gradientUnits="userSpaceOnUse" x1="473.9799" y1="177.8272" x2="94.98" y2="-223.1728" gradientTransform="matrix(1 0 0 -1 0 341.4778)">
	<stop  offset="0" style="stop-color:#000000;stop-opacity:0.42"/>
	<stop  offset="1" style="stop-color:#000000;stop-opacity:0"/>
</linearGradient>
<path class="st1" d="M460.2,102.1c-38.3-14-60.5-26.9-66.5-38.9v-13l-2.7-2.3h-28.9l-2.7,2.3L-3.1,412.9
	C32,529.3,118.6,623.3,230.3,668.4l146.5-146.5c11.3-10.7,17-24.2,17-40.4v-123l115.7-115.7c20.4-19.7,30.5-43.6,30.5-71.7
	C540,140.6,513.4,117.6,460.2,102.1z"/>
<path class="st2" d="M460.2,102.1c-38.3-14-60.5-26.9-66.5-38.9v-13l-2.7-2.3h-28.9l-2.7,2.3v411.4c-19.7-14.2-40.2-21.3-61.5-21.3
	h-7.6c-47,5.1-70.4,22.2-70.4,51.2c0,37.2,26.8,55.8,80.4,55.8h18.9c49.6-10,74.4-31.9,74.4-65.8V127.3c5.5,5.8,18.5,13.3,38.9,22.6
	c50.5,15.7,75.8,31.3,75.8,46.9c0,18.6-6.8,33.3-20.3,44.2l10,10.6h1.3c27-21.3,40.5-48.1,40.5-80.4
	C540,140.6,513.4,117.6,460.2,102.1z"/>
</svg>
