<?xml version="1.0" encoding="utf-8"?>
<!-- Generator: Adobe Illustrator 19.1.0, SVG Export Plug-In . SVG Version: 6.00 Build 0)  -->
<svg version="1.1"
	 id="svg6147" xmlns:rdf="http://www.w3.org/1999/02/22-rdf-syntax-ns#" xmlns:svg="http://www.w3.org/2000/svg" xmlns:cc="http://creativecommons.org/ns#" xmlns:dc="http://purl.org/dc/elements/1.1/"
	 xmlns="http://www.w3.org/2000/svg" xmlns:xlink="http://www.w3.org/1999/xlink" x="0px" y="0px" viewBox="-20 -102.7 800 800"
	 style="enable-background:new -20 -102.7 800 800;" xml:space="preserve">
<style type="text/css">
	.st0{fill:#1D7B33;}
	.st1{fill:url(#SVGID_1_);}
	.st2{fill:#FFFFFF;}
</style>
<circle id="circle7616" class="st0" cx="380" cy="297.3" r="400"/>
<linearGradient id="SVGID_1_" gradientUnits="userSpaceOnUse" x1="418.2249" y1="290.4818" x2="119.2249" y2="601.4818" gradientTransform="matrix(1 0 0 1 0 -1.44)">
	<stop  offset="0" style="stop-color:#000000;stop-opacity:0.42"/>
	<stop  offset="1" style="stop-color:#000000;stop-opacity:0"/>
</linearGradient>
<path class="st1" d="M523.4,207h-32.1v-63.9C491.3,87,446.1,41.8,390,41.8h-19.8c-28.7,0-54.5,11.8-72.9,30.9L-11.2,381
	C26,555.5,176.9,687.9,360.3,696.8l175.3-175.3c3.3-2.7,5.7-6.5,6.6-10.9c0.3-1.2,0.4-2.5,0.4-3.9V226.1c0-1.3-0.1-2.6-0.4-3.9
	C540.3,213.5,532.6,207,523.4,207z"/>
<path class="st2" d="M523.4,207h-32.1v-63.9C491.3,87,446.1,41.8,390,41.8h-19.8c-56.1,0-101.3,45.2-101.3,101.3V207h-32.1
	c-10.6,0-19.2,8.5-19.2,19.2v280.6c0,10.6,8.5,19.2,19.2,19.2h286.7c10.6,0,19.1-8.5,19.1-19.2V226.1C542.5,215.5,534,207,523.4,207
	z M282.7,144.8c0-49.1,39.5-88.7,88.7-88.7h17.3c49.1,0,88.7,39.5,88.7,88.7V207h-18.3v-58.8c0-39.9-32.1-72-72-72H373
	c-39.9,0-72,32.1-72,72V207h-18.3V144.8z M449.2,149.3V207H310.8v-57.6c0-34.9,28.1-63,63-63h12.3
	C421.1,86.3,449.2,114.4,449.2,149.3z M527.7,493.9c0,9.6-7.8,17.4-17.4,17.4H249.7c-9.6,0-17.4-7.8-17.4-17.4v-255
	c0-9.6,7.8-17.4,17.4-17.4h260.6c9.6,0,17.4,7.8,17.4,17.4L527.7,493.9L527.7,493.9z"/>
<path class="st2" d="M461.2,305.3L461.2,305.3L461.2,305.3z"/>
<path class="st2" d="M298.8,305.3L298.8,305.3L298.8,305.3z"/>
<path class="st2" d="M455.3,299.4H304.7c-3.3,0-5.9,2.7-5.9,5.9c0,3.2,2.7,5.9,5.9,5.9h150.7c3.3,0,5.9-2.7,5.9-5.9
	C461.3,302.1,458.6,299.4,455.3,299.4z"/>
<path class="st2" d="M298.8,431.6L298.8,431.6L298.8,431.6z"/>
<path class="st2" d="M461.2,431.6L461.2,431.6L461.2,431.6z"/>
<path class="st2" d="M455.3,425.7H304.7c-3.3,0-5.9,2.7-5.9,5.9s2.7,5.9,5.9,5.9h150.7c3.3,0,5.9-2.7,5.9-5.9
	S458.6,425.7,455.3,425.7z"/>
<path class="st2" d="M461.2,367.2L461.2,367.2L461.2,367.2z"/>
<path class="st2" d="M455.3,361.3H304.7c-3.3,0-5.9,2.7-5.9,5.9s2.7,5.9,5.9,5.9h150.7c3.3,0,5.9-2.7,5.9-5.9
	S458.6,361.3,455.3,361.3z"/>
<path class="st2" d="M298.8,367.2L298.8,367.2L298.8,367.2z"/>
</svg>
