<?xml version="1.0" encoding="utf-8"?>
<!-- Generator: Adobe Illustrator 19.1.0, SVG Export Plug-In . SVG Version: 6.00 Build 0)  -->
<svg version="1.1"
	 id="svg4180" xmlns:rdf="http://www.w3.org/1999/02/22-rdf-syntax-ns#" xmlns:svg="http://www.w3.org/2000/svg" xmlns:cc="http://creativecommons.org/ns#" xmlns:dc="http://purl.org/dc/elements/1.1/"
	 xmlns="http://www.w3.org/2000/svg" xmlns:xlink="http://www.w3.org/1999/xlink" x="0px" y="0px" viewBox="-20 -102.7 800 800"
	 style="enable-background:new -20 -102.7 800 800;" xml:space="preserve">
<style type="text/css">
	.st0{fill:#30383B;}
	.st1{fill:url(#SVGID_1_);}
	.st2{fill:#FFFFFF;}
</style>
<circle id="circle4745" class="st0" cx="380" cy="297.3" r="400"/>
<linearGradient id="SVGID_1_" gradientUnits="userSpaceOnUse" x1="379.3901" y1="286.3512" x2="-15.1362" y2="-73.6971" gradientTransform="matrix(1 0 0 -1 0 593.84)">
	<stop  offset="0" style="stop-color:#000000;stop-opacity:0.42"/>
	<stop  offset="1" style="stop-color:#000000;stop-opacity:0"/>
</linearGradient>
<path class="st1" d="M484.4,48.7H281.5c-11.9,0-22.6,5.1-29.9,13.3L-18.5,332.1C-1.7,527,154.9,682,350.6,696.2l160.7-160.7
	c8.2-7.4,13.3-18,13.3-29.9V88.9C524.6,66.6,506.7,48.7,484.4,48.7z"/>
<path id="path4759" class="st2" d="M281.5,48.7c-22.3,0-40.2,17.9-40.2,40.2v416.7c0,22.3,17.9,40.2,40.2,40.2h202.8
	c22.3,0,40.2-17.9,40.2-40.2V88.9c0-22.3-17.9-40.2-40.2-40.2H281.5z M283.9,60.6h197.9c16,0,28.9,12.9,28.9,28.9V505
	c0,16-12.9,28.9-28.9,28.9H283.9c-16,0-28.9-12.9-28.9-28.9V89.5C255,73.5,267.9,60.6,283.9,60.6z M356.4,81c-4.9,0-8.9,4-8.9,8.9
	s4,8.9,8.9,8.9h53c4.9,0,8.9-4,8.9-8.9s-4-8.9-8.9-8.9H356.4z M262.1,113.6v352.9h241.4V113.6H262.1z M274.5,127.8h216.7v324.5
	H274.5V127.8z M382.9,478.5c-12.5,0-22.7,10.1-22.7,22.7c0,12.5,10.1,22.7,22.7,22.7c12.5,0,22.7-10.1,22.7-22.7
	C405.5,488.7,395.4,478.5,382.9,478.5z"/>
</svg>
