<?xml version="1.0" encoding="utf-8"?>
<!-- Generator: Adobe Illustrator 19.1.0, SVG Export Plug-In . SVG Version: 6.00 Build 0)  -->
<svg version="1.1"
	 id="svg4178" xmlns:rdf="http://www.w3.org/1999/02/22-rdf-syntax-ns#" xmlns:svg="http://www.w3.org/2000/svg" xmlns:cc="http://creativecommons.org/ns#" xmlns:dc="http://purl.org/dc/elements/1.1/"
	 xmlns="http://www.w3.org/2000/svg" xmlns:xlink="http://www.w3.org/1999/xlink" x="0px" y="0px" viewBox="-20 -102.7 800 800"
	 style="enable-background:new -20 -102.7 800 800;" xml:space="preserve">
<style type="text/css">
	.st0{fill:#445B24;}
	.st1{opacity:0.42;fill:url(#SVGID_1_);enable-background:new    ;}
	.st2{fill:#FFFFFF;}
</style>
<circle id="circle4739" class="st0" cx="380" cy="300.6" r="400"/>
<linearGradient id="SVGID_1_" gradientUnits="userSpaceOnUse" x1="443.4378" y1="288.9298" x2="137.4378" y2="-24.0702" gradientTransform="matrix(1 0 0 -1 0 593.84)">
	<stop  offset="0" style="stop-color:#000000"/>
	<stop  offset="1" style="stop-color:#000000;stop-opacity:0"/>
</linearGradient>
<path class="st1" d="M573.2,439.3c-33.4-1.8-60.9-11-74.9-189c-3-33.4-28.4-98.4-97.5-100.1c0-30.6-10.2-45.5-20.6-45.3
	c-3.7,0.1-7.4,2.1-10.7,6l-47.8,47.8l-0.1,0.1c-10.4,4.9-19.2,11.6-26.6,19.3l-282,282c55.5,127.6,175.7,220.6,319.1,237.7
	L576,453.9C582.1,451,581.2,439.3,573.2,439.3z"/>
<path id="path4168" class="st2" d="M359.2,150.2c-69,1.8-93.9,67.4-97.5,102.8c-14,178-41.5,184.5-74.9,186.3c-9.2,0-9,15.2,0,15.2
	h192.8h0.8h192.8c9,0,9.2-15.2,0-15.2c-33.4-1.8-60.9-11-74.9-189c-3-33.4-28.4-98.4-97.5-100.1C400.8,88.9,359.8,90.5,359.2,150.2
	L359.2,150.2z"/>
<path id="path4173" class="st2" d="M340.6,462.6c-1.1,3.7-1.6,7.4-1.6,11.3c0,22.7,18.4,41,41,41l0,0c22.7,0,41-18.4,41-41l0,0
	c0-3.8-0.5-7.6-1.6-11.3h-40.8h-0.8H340.6z"/>
</svg>
