<?xml version="1.0" encoding="utf-8"?>
<!-- Generator: Adobe Illustrator 19.1.0, SVG Export Plug-In . SVG Version: 6.00 Build 0)  -->
<svg version="1.1"
	 id="svg8457" xmlns:rdf="http://www.w3.org/1999/02/22-rdf-syntax-ns#" xmlns:svg="http://www.w3.org/2000/svg" xmlns:cc="http://creativecommons.org/ns#" xmlns:dc="http://purl.org/dc/elements/1.1/"
	 xmlns="http://www.w3.org/2000/svg" xmlns:xlink="http://www.w3.org/1999/xlink" x="0px" y="0px" viewBox="-20 -102.7 800 800"
	 style="enable-background:new -20 -102.7 800 800;" xml:space="preserve">
<style type="text/css">
	.st0{fill:#30383B;}
	.st1{opacity:0.42;fill:url(#SVGID_1_);enable-background:new    ;}
	.st2{fill:#FFFFFF;}
</style>
<circle id="circle9007" class="st0" cx="380" cy="297.3" r="400"/>
<linearGradient id="SVGID_1_" gradientUnits="userSpaceOnUse" x1="404.3462" y1="272.3919" x2="93.3462" y2="577.3918" gradientTransform="matrix(1 0 0 1 0 -1.44)">
	<stop  offset="0" style="stop-color:#000000"/>
	<stop  offset="1" style="stop-color:#000000;stop-opacity:0"/>
</linearGradient>
<path class="st1" d="M593.1,201.1c-11.7-12.5-25.9-22.5-42.6-29.9c-16.5-7.2-35-10.8-55.3-10.8c-7.5,0.1-14.8,0.5-22.1,1.7
	c0,0,0,0-0.1,0l0,0c-15.4,2.5-29.2,7.6-41.4,15.5c-8.2,5.6-15.5,12-22.1,18.9l-72.4,72.4l37.4-59.2c-3.5-5-7.3-9.8-11.3-14.3
	c-0.1-0.1-0.2-0.2-0.3-0.3c-8.5-9.7-18.1-18.3-28.9-25.7c-10.6-7.2-22.4-12.9-35.3-17.2c-12.9-4-27-6-42.3-6l0,0
	c-21.2,0-39.7,4.3-55.6,13c-11.7,6.4-22,14.2-30.8,23.3L-14,366.6C14.4,529,140.8,657.8,302,689.7C398.3,594.9,494.4,500,588,403
	c1-1,2-2,3-3c3-2.9,5.8-5.9,8.5-9.1c10-12.1,17.5-26,22.6-41.6c5.3-15.7,7.9-31.9,7.9-48.6c0-19.5-3.2-37.8-9.5-55
	C614.1,228.7,605,213.8,593.1,201.1z"/>
<path class="st2" d="M593.1,201.1c-11.7-12.5-25.9-22.5-42.6-29.9c-16.5-7.2-35-10.8-55.3-10.8c-2.7,0-5.4,0.1-8,0.2
	c-0.8,0-1.7,0.1-2.5,0.1c-0.5,0-1,0.1-1.5,0.1c-1.3,0.1-2.6,0.2-3.9,0.4c-0.4,0-0.8,0.1-1.2,0.1c-1.7,0.2-3.3,0.4-4.9,0.7
	c0,0,0,0-0.1,0l0,0c-15.4,2.5-29.2,7.6-41.4,15.5c-51,35.3-68.7,98.6-104.6,142.7c-3.8,4.5-8.2,8.9-13,13.3
	c-4.9,4.5-10.3,8.4-16.2,11.8c-4.1,2.4-8.5,4.4-13,6.1l0,0c-2,0.8-4,1.5-6.1,2.1c-6.8,2.1-14,3.2-21.6,3.2
	c-10.2,0-18.9-1.8-26.1-5.4c-7-3.4-12.7-7.9-17.2-13.7c-4.2-5.7-7.4-12.3-9.5-19.7c-1.9-7.2-2.9-14.6-2.9-22.3
	c0-8.3,1.2-16,3.5-23.2c2.5-7,6.4-13.1,11.4-18.4c5.1-5.1,11.7-9.1,19.7-12.1c8.1-3,17.7-4.5,28.9-4.5c13.1,0,24.9,2.3,35.3,7
	c2.2,1,4.3,2,6.3,3.1c0.8,0.4,1.7,0.8,2.5,1.3c0.7,0.4,1.4,0.8,2.2,1.2c2.2,1.2,4.4,2.5,6.4,3.8c3.4,2.1,6.7,4.3,9.6,6.6
	c3.4,2.6,6.6,5.4,9.7,8.4l37.4-59.2c-3.5-5-7.3-9.8-11.3-14.3c-0.1-0.1-0.2-0.2-0.3-0.3c-8.5-9.7-18.1-18.3-28.9-25.7
	c-10.6-7.2-22.4-12.9-35.3-17.2c-12.9-4-27-6-42.3-6l0,0c-21.2,0-39.7,4.3-55.6,13S171.6,179,161,192.8c-10.4,14-18.1,29.7-23.2,47
	c-5.3,17.4-7.9,34.9-7.9,52.4c0,20.6,3.2,40.2,9.5,58.8c6.6,18.9,16.1,35.5,28.6,49.9s28,25.9,46.4,34.3c18.4,8.7,39.7,13,63.9,13
	c14.8,0,28.3-2.3,40.4-7c1.7-0.7,3.5-1.4,5.2-2.1c0.4-0.2,0.8-0.4,1.3-0.6c1.3-0.6,2.6-1.2,3.8-1.8c0.5-0.2,0.9-0.4,1.4-0.7
	c1.3-0.7,2.6-1.3,3.9-2c0.3-0.2,0.6-0.3,0.9-0.5c1.6-0.9,3.1-1.8,4.7-2.7l0,0c4.3-2.6,8.4-5.5,12.3-8.7c10.2-8.1,19.4-17.4,27.7-28
	c30.5-37.6,43.7-77.4,69-111.3c4.7-5.9,9.9-11.4,15.6-16.5c5.7-4.9,12.2-9,19.4-12.4c3.8-1.6,7.8-2.8,12.1-3.6c0.1,0,0.2,0,0.4-0.1
	c0.9-0.2,1.8-0.3,2.8-0.4c1-0.1,2.1-0.3,3.2-0.4c1.1-0.1,2.2-0.2,3.3-0.2c1.1,0,2.3-0.1,3.5-0.1c6.1,0,11.8,1.3,16.8,3.8
	c5.3,2.8,9.7,6.4,13.3,10.8c3.8,4.7,6.8,10,8.9,15.9c2.1,6.1,3.2,12.6,3.2,19.4c0,7.6-1.2,14.7-3.5,21.3c-2.1,6.6-5.2,12.2-9.2,16.8
	c-4,4.9-8.9,8.6-14.6,11.1c-5.5,2.8-11.6,4.1-18.1,4.1c-9.7,0-18.9-2.8-27.3-8.3c-1.7-1.1-3.2-2.2-4.8-3.4c-1.4-1-2.8-2.1-4.1-3.2
	l0,0c-4.6-3.7-8.9-7.5-12.7-11.6c-1.8-1.9-3.5-3.8-5.1-5.8l-36.5,57.8c2.6,3.3,5.4,6.5,8.3,9.7c1.7,1.8,3.4,3.5,5.1,5.3
	c1.1,1.1,2.3,2.2,3.4,3.2c0.8,0.7,1.5,1.4,2.3,2.1c1,0.9,2,1.8,3,2.6c1.1,0.9,2.2,1.8,3.3,2.7c0.8,0.6,1.6,1.3,2.4,1.9
	c2,1.5,4,3,6.1,4.4c9.5,6.4,19.6,11.3,30.2,14.9c10.8,3.8,22,5.7,33.7,5.7c18.6,0,35.2-3.7,49.6-11.1c14.6-7.2,26.9-16.8,36.9-28.9
	s17.5-26,22.6-41.6c5.3-15.7,7.9-31.9,7.9-48.6c0-19.5-3.2-37.8-9.5-55C614.1,228.7,605,213.8,593.1,201.1z"/>
</svg>
