<?xml version="1.0" encoding="utf-8"?>
<!-- Generator: Adobe Illustrator 19.1.0, SVG Export Plug-In . SVG Version: 6.00 Build 0)  -->
<svg version="1.1"
	 id="svg2" xmlns:rdf="http://www.w3.org/1999/02/22-rdf-syntax-ns#" xmlns:svg="http://www.w3.org/2000/svg" xmlns:cc="http://creativecommons.org/ns#" xmlns:dc="http://purl.org/dc/elements/1.1/"
	 xmlns="http://www.w3.org/2000/svg" xmlns:xlink="http://www.w3.org/1999/xlink" x="0px" y="0px" viewBox="-20 -102.7 800 800"
	 style="enable-background:new -20 -102.7 800 800;" xml:space="preserve">
<style type="text/css">
	.st0{fill:#1D7B33;}
	.st1{opacity:0.42;fill:url(#SVGID_1_);enable-background:new    ;}
	.st2{fill:#FFFFFF;}
</style>
<circle id="circle4174" class="st0" cx="380.4" cy="297.3" r="400"/>
<linearGradient id="SVGID_1_" gradientUnits="userSpaceOnUse" x1="406.7728" y1="348.9376" x2="119.616" y2="636.7195" gradientTransform="matrix(1 0 0 1 0 -1.44)">
	<stop  offset="0" style="stop-color:#000000"/>
	<stop  offset="1" style="stop-color:#000000;stop-opacity:0"/>
</linearGradient>
<path class="st1" d="M400.6,311.9v-35.2l58.5-56.7L378,114.2L225.3,267.1h-26.6L12.1,453.7c56.8,133.5,184.1,229.9,335.3,242.2
	l215.5-215.5V267.1H445.4L400.6,311.9z"/>
<path id="rect4417" class="st2" d="M378,114.2l-81.1,105.7H360c-0.5,1.8-0.9,3.7-0.9,5.7v130.2c0,11.5,9.3,20.8,20.8,20.8
	s20.8-9.3,20.8-20.8V225.6c0-2-0.3-3.9-0.9-5.7h59.4L378,114.2L378,114.2z M198.7,267.1v213.2h364.2V267.1H445.4v37.7h72.4v137.8
	h-274V304.8h78v-37.7H198.7L198.7,267.1z"/>
</svg>
