<svg xmlns="http://www.w3.org/2000/svg" viewBox="0 0 804.69 152.07"><defs><style>.cls-1{fill:#fff;}</style></defs><title>Element 1_</title><g id="Ebene_2" data-name="Ebene 2"><g id="Ebene_1-2" data-name="Ebene 1"><path class="cls-1" d="M32,123q-1.24-4.56-2.72-10.46-.16-1.17-3.44-18.94a40.66,40.66,0,0,0-6.92,1.08q-7.42,1.85-10.13,5.7C8,101.5,7.73,104.11,8,108.21a59.39,59.39,0,0,0,2,12.85,12.79,12.79,0,0,0,5.54,7.23q3.11,2.29,4.93,2.47,3.53-.19,7.86-3.85C30.8,124.78,32,123.48,32,123m12.79,7.13q.06,1.17-7.7,5.39l-1.82-3.63q-7.84,7.67-13.9,8a7.17,7.17,0,0,1-2.92-.39,32.49,32.49,0,0,1-11.15-7.8Q1.63,125.94.84,121.45a55.36,55.36,0,0,1-.69-6.31Q-.76,97.61,3.81,93.2q7.86-7.49,20.55-9L23.2,77.51c.1-.37,2.91-.82,8.45-1.35q1.56,7.44,3.48,18,.19,2.27,4.69,18.65t5,17.28"/><path class="cls-1" d="M92.47,85.13,92,117c0,.24-.3,3.46-.95,9.65s-1,9.32-1,9.39c0,.6-.49.93-1.58,1-.42,0-1.51,0-3.27-.1a12,12,0,0,1-3-.34c-.25-.14-.49-2.37-.72-6.71A14.39,14.39,0,0,1,72.09,134q-6.42.24-12.73-5.95-7.55-7.4-7.85-13.36,0-1-.09-3.54a171.87,171.87,0,0,0-3.07-24q0-.45,1.08-1c.74-.34,1.46-.68,2.17-1l2-.55A19.16,19.16,0,0,1,57.52,84q1.11,2.21,1.53,10.25c.06,1.27.11,2.75.14,4.44l.15,2.84,0,.41q.44,4.78,1.3,11.08A37.81,37.81,0,0,0,63,117.57c1.33,2.41,2.32,3.81,2.94,4.2a21.72,21.72,0,0,0,3,1.84,14.15,14.15,0,0,0,6,1.5q6.42-2.07,6.8-7,1.09-4.86,1.62-31.54l1-.86Z"/><path class="cls-1" d="M135,58.62l-.5,7.64a55.55,55.55,0,0,0-5.62,0c-5.24.27-8.58,1.24-10,2.88-1.66,1.9-2.37,4.89-2.16,9,0,.66.13,1.81.27,3.43q.56,1.88,1.41,6.18a10.18,10.18,0,0,1,.6,2.78c8.34-1,13.82-1.54,16.4-1.67q.45,3.42,1.17,8.37c0,.36-2.64.69-8,1s-8,.59-8,.82q1.22,7.65,6.38,30.3,4.71,20.79,5,21.49c-2.41.13-6,.16-10.87.11a5,5,0,0,1-2.12,1.11q-2.83-18.15-9-50.73c-.07-.3-.77-.41-2.1-.35-.84.05-2.31.2-4.42.46s-3.51.41-4.23.45c-1.27.07-1.91-.05-1.92-.35-.34-2.89-.53-4.93-.59-6.13q.12-2.73,11-3.3-.32-1-1.43-6.54c-.24-1.19-.42-2.27-.53-3.24q-.06-1,.26-8.89c.29-1.4.59-2.72.88-3.94a16.93,16.93,0,0,1,2.76-6.12q3.58-4.28,15.61-4.9a73,73,0,0,1,9.7.13"/><path class="cls-1" d="M177.78,58.48c-1.2,3.68-3,5.59-5.5,5.72q-7-2.36-7.16-5.06a5.88,5.88,0,0,1,1.34-4,6.6,6.6,0,0,1,5.21-2.63,9.28,9.28,0,0,1,1.68.09,5.07,5.07,0,0,1,2.5,1.87,6.43,6.43,0,0,1,1.93,4M173.47,81.9l-1.8,41.88a6.63,6.63,0,0,0,1.08,3.38c0,.48,0,.72-.05.73a2.65,2.65,0,0,1-1.39-.66,7.53,7.53,0,0,1-1.13-.84,1.9,1.9,0,0,0-1.21-.48,5.87,5.87,0,0,1-1.71.27c-3.85.2-5.8,0-5.83-.69q.25-.3,1.58-21.75,1.35-21.18,2-21.4a14.34,14.34,0,0,0,2.17-1,5.84,5.84,0,0,1,1.69-.63,22.22,22.22,0,0,1,4.59,1.21"/><path class="cls-1" d="M241.85,79.24q0,.36-2.53,16.67t-2.53,16.76q0,.81,2.22,4.42L235.9,120l-5.76,2.47L203.82,90.37l-2.44-1.59-3.49,37.43-9.35-3.77a15.16,15.16,0,0,1,.94-4.67q.92-1.59,2.82-50.27a6.07,6.07,0,0,1,1.35-1.79q10.71,2.07,10.77,3.15a12,12,0,0,1-1.15,3.19,12.16,12.16,0,0,0-1.15,3.19q.06,1.08,25.67,29.93l4.25-28q9.77,1.3,9.81,2.12"/><path class="cls-1" d="M284.75,113.07a7.94,7.94,0,0,1-.09,1.73,29.83,29.83,0,0,1-8.28,16.74q-5.16,5.25-8.14,5.41-2,.11-2.67-7.66,10.59-5.71,10.18-13.39a11.28,11.28,0,0,0-1.73-5.26q-1-1.67-11-3.73t-11.68-4.29a24.89,24.89,0,0,1-3.31-7A35.71,35.71,0,0,1,246,85.73c-.19-3.67.45-6.37,1.93-8.08q6.08-7,17-9.4,5.74-.85,11.51-1.6l3.23,11.52c-1,0-2.17,0-3.44.09q-15.18.78-16.72,4.41A16.63,16.63,0,0,0,258,90.18a7.26,7.26,0,0,0,1.7,4.71c.77.86,4.24,2,10.42,3.45q8.81,2.07,9,2.88,1.49,2.28,2.86,4.47a16,16,0,0,1,2.74,7.38"/><path class="cls-1" d="M427.6,78.88Q427.19,71,420.36,65q-1.25-1.11-8.84-2.62L408,98.66l1,.4c2.87-.57,5.35-1.13,7.44-1.66q7.59-2,8.24-3.6,3.29-8.33,2.93-14.92m7.48-2.66a40.45,40.45,0,0,1-.12,4.72q-.65,8.55-2,12.47a16.55,16.55,0,0,1-4.94,7q-3,2.68-9.73,4.49a37.48,37.48,0,0,1-7.27,1.37,9.83,9.83,0,0,0-3.48,1.09c-.11,1.4-.19,2.64-.26,3.73-.29,2.49-.61,3.87-1,4.13a19.11,19.11,0,0,1-2.73,1.41l-6.34.15,1.06-9.12-.88.5.41-7.91,1.35-.07,2.43-38.46c0-.3-.23-.44-.65-.42a7.35,7.35,0,0,0-.76.13,6.91,6.91,0,0,1-.86.14c-.42,0-.64-.09-.65-.33s.15-1.46.31-3.64.23-3.37.22-3.55a8.38,8.38,0,0,0-.15-1.26,6.38,6.38,0,0,1-.15-1.08c0-.12.2-.19.44-.2a7.26,7.26,0,0,1,1.32.11,8.54,8.54,0,0,0,1.23.12c.3,0,.45-.08.44-.21.2-3.27.34-5.12.44-5.55q.35-2,.33-14.61,8.75-2.45,11.73-2.6c.18.05.28.22.3.52a7.35,7.35,0,0,1-1.36,3.34c-.18,2.37-.26,3.76-.24,4.18s-.6,5.92-1.86,16.5q4.13.78,9.72,2.21Q434.29,61,435.08,76.22"/><path class="cls-1" d="M495.75,80.48c.05,1-.11,1.52-.46,1.66q-1.53.17-30.91,1.7l-8.65,2.63,2.83,14.26,18.82-4.06,3.48,7.7-1.5.8L461.17,109l-1,.42-10.57,2.36-3.4-23.48-6.39.79-1.56-10.7,6.38-1.15-1-9.56-1.55-.19L439,58.34h1.9l0-2.17-2.13-.8,12.48-4.09,1.7,4.9q22.92-5.28,28.71-5.58a6.42,6.42,0,0,0,1.64.19q1.35-.08,1.68-.81l.6,9.66L453.57,64.2l1,11.64,2.77-.78c.07.24.56.33,1.47.28.41-.08.63-.25.65-.53s.08-.41.2-.42a13.76,13.76,0,0,0,3.91.16q7.86-.4,29.77-2.55l1,1.31a37.38,37.38,0,0,1,1.46,7.17"/><path class="cls-1" d="M553.31,58.18q0,.36-2.53,16.66t-2.52,16.77c0,.54.77,2,2.22,4.42l-3.11,2.88-5.76,2.47L515.29,69.32l-2.45-1.6-3.48,37.43L500,101.38a15.32,15.32,0,0,1,.93-4.67q.92-1.59,2.82-50.26a6,6,0,0,1,1.36-1.8q10.71,2.07,10.76,3.16A11.94,11.94,0,0,1,514.74,51a11.76,11.76,0,0,0-1.15,3.19q0,1.08,25.67,29.93l4.24-28q9.76,1.3,9.81,2.12"/><path class="cls-1" d="M595.52,63c0,.19-.32.29-1,.32a71,71,0,0,1-7.32-.47q-5.87-.55-7.14-.49c-.36,0-.57.09-.62.22q5,35.63,5.68,37.67,0,.36-10,2.24a24.21,24.21,0,0,1-3-1.11q-.93-10.83-3.27-36.63c0-.3-.65-.41-1.92-.35-.85,0-2.35.22-4.51.51s-3.63.46-4.41.5c-1.21.06-1.82,0-1.83-.35q-.51-4.6-.59-6.13.12-2.82,11.87-3.44-.56-5.49-.85-5.93a69.08,69.08,0,0,1-1.92-9q-.75-3.94-1.41-7.89l.78-.68,11.18-1.13L577.83,54q8.25.11,16.53.67.45,3.44,1.16,8.37"/><path class="cls-1" d="M657.71,72c0,1-.1,1.52-.46,1.66q-1.53.16-30.91,1.7L617.69,78l2.83,14.26,18.82-4.06,3.48,7.7-1.5.8-18.19,3.85-1,.42-10.57,2.36-3.4-23.48-6.39.79L600.23,70l6.38-1.15-1-9.56-1.56-.19-3.19-9.17h1.9l0-2.17-2.13-.8,12.47-4.09,1.71,4.9q22.92-5.28,28.71-5.58a6.42,6.42,0,0,0,1.64.19q1.35-.07,1.68-.81l.6,9.66-31.94,4.57,1,11.64,2.77-.78c.07.24.56.33,1.46.28.42-.08.64-.25.66-.53s.08-.41.2-.42a13.76,13.76,0,0,0,3.91.16q7.86-.41,29.77-2.55l1,1.31A36.82,36.82,0,0,1,657.71,72"/><path class="cls-1" d="M704.41,48.39l-.51,31.84c0,.24-.3,3.46-.95,9.65s-1,9.33-1,9.39c0,.6-.49.93-1.58,1-.42,0-1.51,0-3.27-.1a12.06,12.06,0,0,1-3-.34q-.37-.19-.72-6.71A14.34,14.34,0,0,1,684,97.21q-6.42.26-12.73-5.95-7.54-7.4-7.85-13.36c0-.67,0-1.85-.09-3.53a170.53,170.53,0,0,0-3.07-24c0-.3.35-.62,1.08-1l2.17-1,2.06-.56a19.06,19.06,0,0,1,3.86-.57c.74,1.48,1.25,4.89,1.53,10.25q.1,1.91.15,4.44l.14,2.84,0,.41q.42,4.78,1.3,11.08a35.91,35.91,0,0,0,2.32,4.59c1.33,2.41,2.32,3.81,2.94,4.2a20.67,20.67,0,0,0,3,1.84,14.07,14.07,0,0,0,6,1.5q6.43-2.06,6.8-7,1.11-4.86,1.62-31.54l1-.86Z"/><path class="cls-1" d="M765.17,66.43c.05,1-.1,1.51-.46,1.65q-1.53.18-30.91,1.7l-8.65,2.63L728,86.68l18.82-4.07,3.49,7.71-1.51.8L730.59,95l-1,.41L719,97.75l-3.4-23.48-6.39.78-1.56-10.7,6.38-1.15-1-9.55-1.55-.19-3.2-9.17h1.9l0-2.17-2.13-.8,12.48-4.09,1.7,4.89q22.92-5.28,28.71-5.57a6.81,6.81,0,0,0,1.64.18c.91,0,1.47-.31,1.68-.81l.6,9.66L723,50.14l1,11.64,2.77-.78c.07.24.56.33,1.47.28.42-.08.64-.25.65-.53s.08-.41.2-.41a14.15,14.15,0,0,0,3.91.16q7.86-.42,29.77-2.56l1,1.31a37.3,37.3,0,0,1,1.46,7.18"/><path class="cls-1" d="M804.68,50.77a36.58,36.58,0,0,1-.16,3.73c-.2,2.18-.42,3.42-.67,3.7a2.27,2.27,0,0,1-1.57.49,25.74,25.74,0,0,1-3.54-.09q-2.68-1.22-5.29-2.44a21.89,21.89,0,0,0-8.73-2.35q-1.63,0-7.15.1a37.17,37.17,0,0,0-.26,9,241.06,241.06,0,0,0,4.11,30.24,3.88,3.88,0,0,1-.44,1.93,21.91,21.91,0,0,0-3,1.33l-6.27-.31-3.79-20.46c0-.3.19-.46.61-.48l-.48-.52-1.21-33.56,1.2-1.51c.56-.76,1-1.15,1.3-1.16,1.2.06,2.42.14,3.63.26,2.13.19,3.26.53,3.41,1q.28,2.07.69,4.59,3.88-.12,8.24-.16A47.11,47.11,0,0,1,798,47.49c4.37,1.71,6.61,2.8,6.69,3.28"/><path class="cls-1" d="M333.09,83.15,345,35.36l17.39,47.81Zm48.49,52.73,10.32-3.76L377.17,91.61V83.17H374.1L349.78,16.3l3.46-13.86L343.47,0l-.83,3.34-8.18,3,4.41,12.12L322.72,83.15h-2.36V92.6l-9.2,36.86,9.77,2.44,9.42-37.76h36Z"/></g></g></svg>