<?xml version="1.0" encoding="utf-8"?>
<!-- Generator: Adobe Illustrator 19.1.0, SVG Export Plug-In . SVG Version: 6.00 Build 0)  -->
<svg version="1.1"
	 id="svg4145" xmlns:rdf="http://www.w3.org/1999/02/22-rdf-syntax-ns#" xmlns:svg="http://www.w3.org/2000/svg" xmlns:cc="http://creativecommons.org/ns#" xmlns:dc="http://purl.org/dc/elements/1.1/"
	 xmlns="http://www.w3.org/2000/svg" xmlns:xlink="http://www.w3.org/1999/xlink" x="0px" y="0px" viewBox="-20 -102.7 800 800"
	 style="enable-background:new -20 -102.7 800 800;" xml:space="preserve">
<style type="text/css">
	.st0{fill:#428EB2;}
	.st1{fill:url(#SVGID_1_);}
	.st2{fill:#FFFFFF;}
</style>
<circle id="circle4973" class="st0" cx="380.6" cy="297.3" r="400"/>
<linearGradient id="SVGID_1_" gradientUnits="userSpaceOnUse" x1="367.2715" y1="288.7513" x2="98.2715" y2="27.7513" gradientTransform="matrix(1 0 0 -1 0 593.84)">
	<stop  offset="0" style="stop-color:#000000;stop-opacity:0.42"/>
	<stop  offset="1" style="stop-color:#000000;stop-opacity:0"/>
</linearGradient>
<path class="st1" d="M378.5,152.2c-92,0.2-186.2,42.4-282.8,133.7L-8.6,390.2c33.4,140.4,140.8,252.2,278.8,291.7l375-375
	c6.8-6.8,13.5-13.7,20.3-21c-90.7-83.9-183.3-131-278.1-133.6C384.5,152.3,381.5,152.2,378.5,152.2z"/>
<path id="path4225" class="st2" d="M378.5,152.2c-92,0.2-186.2,42.4-282.8,133.7c189.9,223.2,379.9,203.3,569.8,0
	c-90.7-83.9-183.3-131-278.1-133.6C384.5,152.3,381.5,152.2,378.5,152.2L378.5,152.2z M379.1,192.5c2.2,0,4.3,0,6.5,0.1
	c68.8,1.9,136,36,201.7,96.9C449.6,437,311.8,451.4,174,289.5C244.1,223.3,312.4,192.7,379.1,192.5L379.1,192.5z M381.4,214.5
	c-47.3,0-85.7,38.3-85.7,85.6l0,0c0,47.3,38.3,85.7,85.6,85.7l0,0c47.3,0,85.7-38.3,85.7-85.6l0,0c0-7.1-0.9-14.3-2.7-21.2
	l-82.9,21.2c0,0,35.8-49.7,50.3-69.2C417,220.3,399.4,214.5,381.4,214.5L381.4,214.5z"/>
</svg>
