<?xml version="1.0" encoding="utf-8"?>
<!-- Generator: Adobe Illustrator 19.1.0, SVG Export Plug-In . SVG Version: 6.00 Build 0)  -->
<svg version="1.1"
	 id="svg4744" xmlns:rdf="http://www.w3.org/1999/02/22-rdf-syntax-ns#" xmlns:svg="http://www.w3.org/2000/svg" xmlns:cc="http://creativecommons.org/ns#" xmlns:dc="http://purl.org/dc/elements/1.1/"
	 xmlns="http://www.w3.org/2000/svg" xmlns:xlink="http://www.w3.org/1999/xlink" x="0px" y="0px" viewBox="-20 -102.7 800 800"
	 style="enable-background:new -20 -102.7 800 800;" xml:space="preserve">
<style type="text/css">
	.st0{fill:#1D7B33;}
	.st1{opacity:0.42;fill:url(#SVGID_1_);enable-background:new    ;}
	.st2{fill:#FFFFFF;}
</style>
<circle id="circle4137" class="st0" cx="380" cy="297.3" r="400"/>
<linearGradient id="SVGID_1_" gradientUnits="userSpaceOnUse" x1="396.1371" y1="341.0275" x2="80.1373" y2="38.0274" gradientTransform="matrix(1 0 0 -1 0 592.4)">
	<stop  offset="0" style="stop-color:#000000"/>
	<stop  offset="1" style="stop-color:#000000;stop-opacity:0"/>
</linearGradient>
<path class="st1" d="M382,51.9c-51,0-97,21-130.1,54.7c-87.7,88.9-176.3,177-265,264.9c26.7,142,128.4,257.5,262.4,303.9L382,542.7
	c0,0,181.9-208.4,181.9-308.9S482.4,51.9,382,51.9z"/>
<g>
	<path class="st2" d="M382,51.9c-100.5,0-181.9,81.4-181.9,181.9S382,542.7,382,542.7s181.9-208.4,181.9-308.9S482.4,51.9,382,51.9z
		 M382,523.8c0,0-170.3-196-170.3-290S287.9,63.5,382,63.6l0,0c94,0,170.2,76.2,170.2,170.2S382,523.8,382,523.8z"/>
	<path class="st2" d="M382,150c-46.3,0-83.8,37.5-83.8,83.7l0,0c0,46.3,37.5,83.8,83.7,83.8l0,0c46.3,0,83.7-37.5,83.7-83.8l0,0
		C465.7,187.5,428.2,150,382,150z M382,309c-41.5,0-75.2-33.7-75.2-75.2l0,0c0-41.5,33.7-75.2,75.2-75.2s75.2,33.7,75.2,75.2
		S423.5,309,382,309z"/>
</g>
</svg>
