<?xml version="1.0" encoding="utf-8"?>
<!-- Generator: Adobe Illustrator 19.1.0, SVG Export Plug-In . SVG Version: 6.00 Build 0)  -->
<svg version="1.1"
	 id="svg4178" xmlns:rdf="http://www.w3.org/1999/02/22-rdf-syntax-ns#" xmlns:svg="http://www.w3.org/2000/svg" xmlns:cc="http://creativecommons.org/ns#" xmlns:dc="http://purl.org/dc/elements/1.1/"
	 xmlns="http://www.w3.org/2000/svg" xmlns:xlink="http://www.w3.org/1999/xlink" x="0px" y="0px" viewBox="-20 -102.7 800 800"
	 style="enable-background:new -20 -102.7 800 800;" xml:space="preserve">
<style type="text/css">
	.st0{fill:#30383B;}
	.st1{opacity:0.42;fill:url(#SVGID_1_);enable-background:new    ;}
	.st2{fill:#F8FFFD;}
</style>
<circle id="circle5004" class="st0" cx="380" cy="297.3" r="400"/>
<linearGradient id="SVGID_1_" gradientUnits="userSpaceOnUse" x1="329.2688" y1="261.3417" x2="46.0863" y2="-26.3693" gradientTransform="matrix(1 0 0 -1 0 593.84)">
	<stop  offset="0" style="stop-color:#0E0F0E"/>
	<stop  offset="1" style="stop-color:#0E0F0E;stop-opacity:0"/>
</linearGradient>
<path class="st1" d="M259.2,237.2v-70.5h-18.5h-84.4v0.1l-174,174C1.5,518.5,137.2,661.3,311.5,691.4l204.9-205
	c0.6-0.5,1.2-1.1,1.8-1.6c5.8-5.8,9-13.6,9-21.8c0-2.6-0.3-5.2-1-7.7l30.4-31.9h2.2v-0.2h0.1l44.9-167.5v-18.5H431.5L259.2,237.2
	L259.2,237.2z"/>
<path id="rect4211" class="st2" d="M156.3,166.8v18.5h84.4v52v18.5l44.9,167.5h0.1v0.2h273.1v-0.2h0.1l44.9-167.5v-18.5H259.2v-70.5
	h-18.5L156.3,166.8L156.3,166.8z M259.8,255.8h6.2l6,10.4l-6.5,11.2L259.8,255.8z M273.2,255.8h4.9l-2.4,4.2L273.2,255.8z
	 M285.2,255.8h17.9l6,10.4l-15,25.8l-14.9-25.9L285.2,255.8L285.2,255.8z M310.2,255.8h4.9l-2.4,4.2L310.2,255.8z M322.2,255.8H340
	l6,10.4L331.1,292l-14.9-25.9L322.2,255.8L322.2,255.8z M347.2,255.8h4.9l-2.4,4.2L347.2,255.8z M359.1,255.8H377l6,10.4L368.1,292
	l-14.9-25.9L359.1,255.8L359.1,255.8z M384.1,255.8h4.9l-2.4,4.2L384.1,255.8z M396.1,255.8H414l6,10.4L405.1,292l-14.9-25.9
	L396.1,255.8L396.1,255.8z M421.1,255.8h4.9l-2.4,4.2L421.1,255.8L421.1,255.8z M433.1,255.8H451l6,10.4L442,292l-14.9-25.9
	L433.1,255.8L433.1,255.8z M458.1,255.8h4.9l-2.4,4.2L458.1,255.8L458.1,255.8z M470.1,255.8H488l6,10.4L479,292l-14.9-25.9
	L470.1,255.8z M495.1,255.8h4.9l-2.4,4.2L495.1,255.8z M507.1,255.8H525l6,10.4L516,292l-14.9-25.9L507.1,255.8z M532.1,255.8h4.9
	l-2.4,4.2L532.1,255.8L532.1,255.8z M544,255.8h17.9l6,10.4L553,292l-14.9-25.9L544,255.8z M569,255.8h4.9l-2.4,4.2L569,255.8z
	 M581,255.8h3.6l-4.9,18.4l-4.6-8L581,255.8L581,255.8z M275.6,272.3l14.9,25.9l-13.2,22.9l-9.5-35.3L275.6,272.3L275.6,272.3z
	 M312.6,272.3l14.9,25.9L312.6,324l-14.9-25.9L312.6,272.3z M349.6,272.3l14.9,25.9L349.6,324l-14.9-25.9L349.6,272.3z M386.6,272.3
	l14.9,25.9L386.6,324l-14.9-25.9L386.6,272.3z M423.6,272.3l14.9,25.9L423.6,324l-14.9-25.9L423.6,272.3z M460.5,272.3l14.9,25.9
	L460.5,324l-14.9-25.9L460.5,272.3z M497.5,272.3l14.9,25.9L497.5,324l-14.9-25.9L497.5,272.3z M534.5,272.3l14.9,25.9L534.5,324
	l-14.9-25.9L534.5,272.3z M571.5,272.3l5.9,10.3l-9.5,35.3l-11.4-19.7L571.5,272.3z M294.1,304.3l14.9,25.9l-14.9,25.9l-13.8-24
	l-0.7-2.6L294.1,304.3L294.1,304.3z M331.1,304.3l14.9,25.9l-14.9,25.9l-14.9-25.9L331.1,304.3z M368.1,304.3l14.9,25.9l-14.9,25.9
	l-14.9-25.9L368.1,304.3z M405.1,304.3l14.9,25.9l-14.9,25.9l-14.9-25.9L405.1,304.3z M442,304.3l14.9,25.9L442,356.1l-14.9-25.9
	L442,304.3z M479,304.3l14.9,25.9L479,356.1l-14.9-25.9L479,304.3L479,304.3z M516,304.3l14.9,25.9L516,356.1l-14.9-25.9L516,304.3z
	 M553,304.3l12.7,22l-3.9,14.4L553,356l-14.9-25.9L553,304.3L553,304.3z M312.6,336.4l14.9,25.9l-14.9,25.9l-14.9-25.9L312.6,336.4
	L312.6,336.4z M349.6,336.4l14.9,25.9l-14.9,25.9l-14.9-25.9L349.6,336.4L349.6,336.4z M386.6,336.4l14.9,25.9l-14.9,25.9
	l-14.9-25.9L386.6,336.4L386.6,336.4z M423.6,336.4l14.9,25.9l-14.9,25.9l-14.9-25.9L423.6,336.4L423.6,336.4z M460.5,336.4
	l14.9,25.9l-14.9,25.9l-14.9-25.9L460.5,336.4L460.5,336.4z M497.5,336.4l14.9,25.9l-14.9,25.9l-14.9-25.9L497.5,336.4L497.5,336.4z
	 M534.5,336.4l14.9,25.9l-14.9,25.9l-14.9-25.9L534.5,336.4L534.5,336.4z M286.4,355.1l4.1,7.1l-1.5,2.6L286.4,355.1L286.4,355.1z
	 M294.1,368.4l14.9,25.9l-6.2,10.7h-3l-8.5-31.7L294.1,368.4L294.1,368.4z M331.1,368.4l14.9,25.9l-6.2,10.7h-17.5l-6.2-10.7
	L331.1,368.4z M368.1,368.4l14.9,25.9l-6.2,10.7h-17.5l-6.2-10.7L368.1,368.4L368.1,368.4z M405.1,368.4l14.9,25.9l-6.2,10.7h-17.5
	l-6.2-10.7L405.1,368.4z M442,368.4l14.9,25.9l-6.2,10.7h-17.5l-6.2-10.7L442,368.4z M479,368.4l14.9,25.9l-6.2,10.7h-17.5
	l-6.2-10.7L479,368.4L479,368.4z M516,368.4l14.9,25.9l-6.2,10.7h-17.5l-6.2-10.7L516,368.4L516,368.4z M553,368.4l1,1.7l-9.4,34.9
	h-0.4l-6.2-10.7L553,368.4L553,368.4z M312.6,400.4l2.6,4.6H310L312.6,400.4z M349.6,400.4l2.6,4.6H347L349.6,400.4L349.6,400.4z
	 M386.6,400.4l2.6,4.6h-5.3L386.6,400.4L386.6,400.4z M423.6,400.4l2.6,4.6h-5.3L423.6,400.4L423.6,400.4z M460.5,400.4l2.6,4.6
	h-5.3L460.5,400.4L460.5,400.4z M497.5,400.4l2.6,4.6h-5.3L497.5,400.4z M534.5,400.4l2.6,4.6h-5.3L534.5,400.4z M355.2,432.2
	c-17,0-30.8,13.8-30.8,30.8l0,0c0,17,13.8,30.8,30.8,30.8l0,0c17,0,30.8-13.8,30.8-30.8l0,0C386,446,372.2,432.2,355.2,432.2
	L355.2,432.2z M496.4,432.2c-17,0-30.8,13.8-30.8,30.8l0,0c0,17,13.8,30.8,30.8,30.8l0,0c17,0,30.8-13.8,30.8-30.8l0,0
	C527.2,446,513.4,432.2,496.4,432.2L496.4,432.2z"/>
</svg>
