<?xml version="1.0" encoding="utf-8"?>
<!-- Generator: Adobe Illustrator 19.1.0, SVG Export Plug-In . SVG Version: 6.00 Build 0)  -->
<svg version="1.1"
	 id="svg4178" xmlns:rdf="http://www.w3.org/1999/02/22-rdf-syntax-ns#" xmlns:svg="http://www.w3.org/2000/svg" xmlns:cc="http://creativecommons.org/ns#" xmlns:dc="http://purl.org/dc/elements/1.1/"
	 xmlns="http://www.w3.org/2000/svg" xmlns:xlink="http://www.w3.org/1999/xlink" x="0px" y="0px" viewBox="-20 -102.7 800 800"
	 style="enable-background:new -20 -102.7 800 800;" xml:space="preserve">
<style type="text/css">
	.st0{fill:#445B24;}
	.st1{opacity:0.42;fill:url(#SVGID_1_);enable-background:new    ;}
	.st2{fill:#F8FFFD;}
</style>
<circle id="circle5004" class="st0" cx="380" cy="298.1" r="400"/>
<linearGradient id="SVGID_1_" gradientUnits="userSpaceOnUse" x1="329.2688" y1="260.5417" x2="46.0863" y2="-27.1692" gradientTransform="matrix(1 0 0 -1 0 593.84)">
	<stop  offset="0" style="stop-color:#0E0F0E"/>
	<stop  offset="1" style="stop-color:#0E0F0E;stop-opacity:0"/>
</linearGradient>
<path class="st1" d="M259.2,238v-70.5h-18.5h-84.4v0.1l-174,174C1.5,519.3,137.2,662.1,311.5,692.2l204.9-205
	c0.6-0.5,1.2-1.1,1.8-1.6c5.8-5.8,9-13.6,9-21.8c0-2.6-0.3-5.2-1-7.7l30.4-31.9h2.2V424h0.1l44.9-167.5V238H431.5L259.2,238
	L259.2,238z"/>
<path id="rect4211" class="st2" d="M156.3,167.6v18.5h84.4v52v18.5l44.9,167.5h0.1v0.2h273.1v-0.2h0.1l44.9-167.5v-18.5H259.2v-70.5
	h-18.5L156.3,167.6L156.3,167.6z M259.8,256.6h6.2l6,10.4l-6.5,11.2L259.8,256.6z M273.2,256.6h4.9l-2.4,4.2L273.2,256.6z
	 M285.2,256.6h17.9l6,10.4l-15,25.8l-14.9-25.9L285.2,256.6L285.2,256.6z M310.2,256.6h4.9l-2.4,4.2L310.2,256.6z M322.2,256.6H340
	l6,10.4l-14.9,25.8l-14.9-25.9L322.2,256.6L322.2,256.6z M347.2,256.6h4.9l-2.4,4.2L347.2,256.6z M359.1,256.6H377l6,10.4
	l-14.9,25.8l-14.9-25.9L359.1,256.6L359.1,256.6z M384.1,256.6h4.9l-2.4,4.2L384.1,256.6z M396.1,256.6H414l6,10.4l-14.9,25.8
	l-14.9-25.9L396.1,256.6L396.1,256.6z M421.1,256.6h4.9l-2.4,4.2L421.1,256.6L421.1,256.6z M433.1,256.6H451l6,10.4l-15,25.8
	l-14.9-25.9L433.1,256.6L433.1,256.6z M458.1,256.6h4.9l-2.4,4.2L458.1,256.6L458.1,256.6z M470.1,256.6H488l6,10.4l-15,25.8
	l-14.9-25.9L470.1,256.6z M495.1,256.6h4.9l-2.4,4.2L495.1,256.6z M507.1,256.6H525l6,10.4l-15,25.8l-14.9-25.9L507.1,256.6z
	 M532.1,256.6h4.9l-2.4,4.2L532.1,256.6L532.1,256.6z M544,256.6h17.9l6,10.4L553,292.8l-14.9-25.9L544,256.6z M569,256.6h4.9
	l-2.4,4.2L569,256.6z M581,256.6h3.6l-4.9,18.4l-4.6-8L581,256.6L581,256.6z M275.6,273.1l14.9,25.9l-13.2,22.9l-9.5-35.3
	L275.6,273.1L275.6,273.1z M312.6,273.1l14.9,25.9l-14.9,25.8l-14.9-25.9L312.6,273.1z M349.6,273.1l14.9,25.9l-14.9,25.8
	l-14.9-25.9L349.6,273.1z M386.6,273.1l14.9,25.9l-14.9,25.8l-14.9-25.9L386.6,273.1z M423.6,273.1l14.9,25.9l-14.9,25.8l-14.9-25.9
	L423.6,273.1z M460.5,273.1l14.9,25.9l-14.9,25.8l-14.9-25.9L460.5,273.1z M497.5,273.1l14.9,25.9l-14.9,25.8l-14.9-25.9
	L497.5,273.1z M534.5,273.1l14.9,25.9l-14.9,25.8l-14.9-25.9L534.5,273.1z M571.5,273.1l5.9,10.3l-9.5,35.3L556.5,299L571.5,273.1z
	 M294.1,305.1L309,331l-14.9,25.9l-13.8-24l-0.7-2.6L294.1,305.1L294.1,305.1z M331.1,305.1L346,331l-14.9,25.9L316.2,331
	L331.1,305.1z M368.1,305.1L383,331l-14.9,25.9L353.2,331L368.1,305.1z M405.1,305.1L420,331l-14.9,25.9L390.2,331L405.1,305.1z
	 M442,305.1l14.9,25.9L442,356.9L427.1,331L442,305.1z M479,305.1l14.9,25.9L479,356.9L464.1,331L479,305.1L479,305.1z M516,305.1
	l14.9,25.9L516,356.9L501.1,331L516,305.1z M553,305.1l12.7,22l-3.9,14.4l-8.8,15.3l-14.9-25.9L553,305.1L553,305.1z M312.6,337.2
	l14.9,25.9L312.6,389l-14.9-25.9L312.6,337.2L312.6,337.2z M349.6,337.2l14.9,25.9L349.6,389l-14.9-25.9L349.6,337.2L349.6,337.2z
	 M386.6,337.2l14.9,25.9L386.6,389l-14.9-25.9L386.6,337.2L386.6,337.2z M423.6,337.2l14.9,25.9L423.6,389l-14.9-25.9L423.6,337.2
	L423.6,337.2z M460.5,337.2l14.9,25.9L460.5,389l-14.9-25.9L460.5,337.2L460.5,337.2z M497.5,337.2l14.9,25.9L497.5,389l-14.9-25.9
	L497.5,337.2L497.5,337.2z M534.5,337.2l14.9,25.9L534.5,389l-14.9-25.9L534.5,337.2L534.5,337.2z M286.4,355.9l4.1,7.1l-1.5,2.6
	L286.4,355.9L286.4,355.9z M294.1,369.2l14.9,25.9l-6.2,10.7h-3l-8.5-31.7L294.1,369.2L294.1,369.2z M331.1,369.2l14.9,25.9
	l-6.2,10.7h-17.5l-6.2-10.7L331.1,369.2z M368.1,369.2l14.9,25.9l-6.2,10.7h-17.5l-6.2-10.7L368.1,369.2L368.1,369.2z M405.1,369.2
	l14.9,25.9l-6.2,10.7h-17.5l-6.2-10.7L405.1,369.2z M442,369.2l14.9,25.9l-6.2,10.7h-17.5l-6.2-10.7L442,369.2z M479,369.2
	l14.9,25.9l-6.2,10.7h-17.5l-6.2-10.7L479,369.2L479,369.2z M516,369.2l14.9,25.9l-6.2,10.7h-17.5l-6.2-10.7L516,369.2L516,369.2z
	 M553,369.2l1,1.7l-9.4,34.9h-0.4l-6.2-10.7L553,369.2L553,369.2z M312.6,401.2l2.6,4.6H310L312.6,401.2z M349.6,401.2l2.6,4.6H347
	L349.6,401.2L349.6,401.2z M386.6,401.2l2.6,4.6h-5.3L386.6,401.2L386.6,401.2z M423.6,401.2l2.6,4.6h-5.3L423.6,401.2L423.6,401.2z
	 M460.5,401.2l2.6,4.6h-5.3L460.5,401.2L460.5,401.2z M497.5,401.2l2.6,4.6h-5.3L497.5,401.2z M534.5,401.2l2.6,4.6h-5.3
	L534.5,401.2z M355.2,433c-17,0-30.8,13.8-30.8,30.8l0,0c0,17,13.8,30.8,30.8,30.8l0,0c17,0,30.8-13.8,30.8-30.8l0,0
	C386,446.8,372.2,433,355.2,433L355.2,433z M496.4,433c-17,0-30.8,13.8-30.8,30.8l0,0c0,17,13.8,30.8,30.8,30.8l0,0
	c17,0,30.8-13.8,30.8-30.8l0,0C527.2,446.8,513.4,433,496.4,433L496.4,433z"/>
</svg>
