<?xml version="1.0" encoding="utf-8"?>
<!-- Generator: Adobe Illustrator 19.1.0, SVG Export Plug-In . SVG Version: 6.00 Build 0)  -->
<svg version="1.1"
	 id="svg4178" xmlns:rdf="http://www.w3.org/1999/02/22-rdf-syntax-ns#" xmlns:svg="http://www.w3.org/2000/svg" xmlns:cc="http://creativecommons.org/ns#" xmlns:dc="http://purl.org/dc/elements/1.1/"
	 xmlns="http://www.w3.org/2000/svg" xmlns:xlink="http://www.w3.org/1999/xlink" x="0px" y="0px" viewBox="-20 -102.7 800 800"
	 style="enable-background:new -20 -102.7 800 800;" xml:space="preserve">
<style type="text/css">
	.st0{fill:#428EB2;}
	.st1{opacity:0.42;fill:url(#SVGID_1_);enable-background:new    ;}
	.st2{fill:#F8FFFD;}
</style>
<circle id="circle5004" class="st0" cx="380" cy="297.7" r="400"/>
<linearGradient id="SVGID_1_" gradientUnits="userSpaceOnUse" x1="329.2589" y1="332.9086" x2="46.0765" y2="620.6196">
	<stop  offset="0" style="stop-color:#0E0F0E"/>
	<stop  offset="1" style="stop-color:#0E0F0E;stop-opacity:0"/>
</linearGradient>
<path class="st1" d="M259.2,237.6v-70.5h-18.5h-84.4v0.1l-174,174C1.5,518.9,137.2,661.7,311.5,691.8l204.9-205
	c0.6-0.5,1.2-1.1,1.8-1.6c5.8-5.8,9-13.6,9-21.8c0-2.6-0.3-5.2-1-7.7l30.4-31.9h2.2v-0.2h0.1l44.9-167.5v-18.5H431.5H259.2z"/>
<path id="rect4211" class="st2" d="M156.3,167.2v18.5h84.4v52v18.5l44.9,167.5h0.1v0.2h273.1v-0.2h0.1l44.9-167.5v-18.5H259.2v-70.5
	h-18.5L156.3,167.2L156.3,167.2z M259.8,256.2h6.2l6,10.4l-6.5,11.2L259.8,256.2z M273.2,256.2h4.9l-2.4,4.2L273.2,256.2z
	 M285.2,256.2h17.9l6,10.4l-15,25.8l-14.9-25.9L285.2,256.2L285.2,256.2z M310.2,256.2h4.9l-2.4,4.2L310.2,256.2z M322.2,256.2H340
	l6,10.4l-14.9,25.8l-14.9-25.9L322.2,256.2L322.2,256.2z M347.2,256.2h4.9l-2.4,4.2L347.2,256.2z M359.1,256.2H377l6,10.4
	l-14.9,25.8l-14.9-25.9L359.1,256.2L359.1,256.2z M384.1,256.2h4.9l-2.4,4.2L384.1,256.2z M396.1,256.2H414l6,10.4l-14.9,25.8
	l-14.9-25.9L396.1,256.2L396.1,256.2z M421.1,256.2h4.9l-2.4,4.2L421.1,256.2L421.1,256.2z M433.1,256.2H451l6,10.4l-15,25.8
	l-14.9-25.9L433.1,256.2L433.1,256.2z M458.1,256.2h4.9l-2.4,4.2L458.1,256.2L458.1,256.2z M470.1,256.2H488l6,10.4l-15,25.8
	l-14.9-25.9L470.1,256.2z M495.1,256.2h4.9l-2.4,4.2L495.1,256.2z M507.1,256.2H525l6,10.4l-15,25.8l-14.9-25.9L507.1,256.2z
	 M532.1,256.2h4.9l-2.4,4.2L532.1,256.2L532.1,256.2z M544,256.2h17.9l6,10.4L553,292.4l-14.9-25.9L544,256.2z M569,256.2h4.9
	l-2.4,4.2L569,256.2z M581,256.2h3.6l-4.9,18.4l-4.6-8L581,256.2L581,256.2z M275.6,272.7l14.9,25.9l-13.2,22.9l-9.5-35.3
	L275.6,272.7L275.6,272.7z M312.6,272.7l14.9,25.9l-14.9,25.8l-14.9-25.9L312.6,272.7z M349.6,272.7l14.9,25.9l-14.9,25.8
	l-14.9-25.9L349.6,272.7z M386.6,272.7l14.9,25.9l-14.9,25.8l-14.9-25.9L386.6,272.7z M423.6,272.7l14.9,25.9l-14.9,25.8l-14.9-25.9
	L423.6,272.7z M460.5,272.7l14.9,25.9l-14.9,25.8l-14.9-25.9L460.5,272.7z M497.5,272.7l14.9,25.9l-14.9,25.8l-14.9-25.9
	L497.5,272.7z M534.5,272.7l14.9,25.9l-14.9,25.8l-14.9-25.9L534.5,272.7z M571.5,272.7l5.9,10.3l-9.5,35.3l-11.4-19.7L571.5,272.7z
	 M294.1,304.7l14.9,25.9l-14.9,25.9l-13.8-24l-0.7-2.6L294.1,304.7L294.1,304.7z M331.1,304.7l14.9,25.9l-14.9,25.9l-14.9-25.9
	L331.1,304.7z M368.1,304.7l14.9,25.9l-14.9,25.9l-14.9-25.9L368.1,304.7z M405.1,304.7l14.9,25.9l-14.9,25.9l-14.9-25.9
	L405.1,304.7z M442,304.7l14.9,25.9L442,356.5l-14.9-25.9L442,304.7z M479,304.7l14.9,25.9L479,356.5l-14.9-25.9L479,304.7
	L479,304.7z M516,304.7l14.9,25.9L516,356.5l-14.9-25.9L516,304.7z M553,304.7l12.7,22l-3.9,14.4l-8.8,15.3l-14.9-25.9L553,304.7
	L553,304.7z M312.6,336.8l14.9,25.9l-14.9,25.9l-14.9-25.9L312.6,336.8L312.6,336.8z M349.6,336.8l14.9,25.9l-14.9,25.9l-14.9-25.9
	L349.6,336.8L349.6,336.8z M386.6,336.8l14.9,25.9l-14.9,25.9l-14.9-25.9L386.6,336.8L386.6,336.8z M423.6,336.8l14.9,25.9
	l-14.9,25.9l-14.9-25.9L423.6,336.8L423.6,336.8z M460.5,336.8l14.9,25.9l-14.9,25.9l-14.9-25.9L460.5,336.8L460.5,336.8z
	 M497.5,336.8l14.9,25.9l-14.9,25.9l-14.9-25.9L497.5,336.8L497.5,336.8z M534.5,336.8l14.9,25.9l-14.9,25.9l-14.9-25.9L534.5,336.8
	L534.5,336.8z M286.4,355.5l4.1,7.1l-1.5,2.6L286.4,355.5L286.4,355.5z M294.1,368.8l14.9,25.9l-6.2,10.7h-3l-8.5-31.7L294.1,368.8
	L294.1,368.8z M331.1,368.8l14.9,25.9l-6.2,10.7h-17.5l-6.2-10.7L331.1,368.8z M368.1,368.8l14.9,25.9l-6.2,10.7h-17.5l-6.2-10.7
	L368.1,368.8L368.1,368.8z M405.1,368.8l14.9,25.9l-6.2,10.7h-17.5l-6.2-10.7L405.1,368.8z M442,368.8l14.9,25.9l-6.2,10.7h-17.5
	l-6.2-10.7L442,368.8z M479,368.8l14.9,25.9l-6.2,10.7h-17.5l-6.2-10.7L479,368.8L479,368.8z M516,368.8l14.9,25.9l-6.2,10.7h-17.5
	l-6.2-10.7L516,368.8L516,368.8z M553,368.8l1,1.7l-9.4,34.9h-0.4l-6.2-10.7L553,368.8L553,368.8z M312.6,400.8l2.6,4.6H310
	L312.6,400.8z M349.6,400.8l2.6,4.6H347L349.6,400.8L349.6,400.8z M386.6,400.8l2.6,4.6h-5.3L386.6,400.8L386.6,400.8z M423.6,400.8
	l2.6,4.6h-5.3L423.6,400.8L423.6,400.8z M460.5,400.8l2.6,4.6h-5.3L460.5,400.8L460.5,400.8z M497.5,400.8l2.6,4.6h-5.3L497.5,400.8
	z M534.5,400.8l2.6,4.6h-5.3L534.5,400.8z M355.2,432.6c-17,0-30.8,13.8-30.8,30.8l0,0c0,17,13.8,30.8,30.8,30.8l0,0
	c17,0,30.8-13.8,30.8-30.8l0,0C386,446.4,372.2,432.6,355.2,432.6L355.2,432.6z M496.4,432.6c-17,0-30.8,13.8-30.8,30.8l0,0
	c0,17,13.8,30.8,30.8,30.8l0,0c17,0,30.8-13.8,30.8-30.8l0,0C527.2,446.4,513.4,432.6,496.4,432.6L496.4,432.6z"/>
</svg>
