<?xml version="1.0" encoding="utf-8"?>
<!-- Generator: Adobe Illustrator 19.1.0, SVG Export Plug-In . SVG Version: 6.00 Build 0)  -->
<svg version="1.1"
	 id="svg4732" xmlns:rdf="http://www.w3.org/1999/02/22-rdf-syntax-ns#" xmlns:svg="http://www.w3.org/2000/svg" xmlns:cc="http://creativecommons.org/ns#" xmlns:dc="http://purl.org/dc/elements/1.1/"
	 xmlns="http://www.w3.org/2000/svg" xmlns:xlink="http://www.w3.org/1999/xlink" x="0px" y="0px" viewBox="-20 -102.7 800 800"
	 style="enable-background:new -20 -102.7 800 800;" xml:space="preserve">
<style type="text/css">
	.st0{fill:#B9CE1E;}
	.st1{opacity:0.42;fill:url(#SVGID_1_);enable-background:new    ;}
	.st2{fill:#FFFFFF;}
</style>
<circle id="circle6121" class="st0" cx="380" cy="297.3" r="400"/>
<linearGradient id="SVGID_1_" gradientUnits="userSpaceOnUse" x1="381.1518" y1="294.6287" x2="47.1517" y2="648.6287" gradientTransform="matrix(1 0 0 1 0 -1.44)">
	<stop  offset="0" style="stop-color:#000000"/>
	<stop  offset="1" style="stop-color:#000000;stop-opacity:0"/>
</linearGradient>
<path class="st1" d="M549.9,179c-8.9-13.7-19.5-25.7-31.8-35.9c-12.2-10.4-25.6-19.1-40-26c-14.2-6.9-29.3-12.1-45.2-15.6
	C417,98,401.1,96.3,385,96.3c-22.5,0-43.3,2.9-62.4,8.8c-19,5.7-36.2,13.5-51.8,23.6c-11.8,7.7-22.6,16.4-32.3,26.3L-6.6,400.4
	C30.8,541,142.9,651.1,284.6,685.8L510.4,460l-15.2-31.7l51.4-51.4c0,0,5.8-6,8.4-9.4c7.7-10,13.5-22.3,17.5-36.7
	c4-14.4,6-30.8,6-49c0-20.4-2.6-39.3-7.7-56.4C565.8,208.1,558.8,192.7,549.9,179z"/>
<path class="st2" d="M431.8,206.4l-9.9,29.9c-2.7-5.5-6.3-10.3-10.7-14.5c-4.4-4.4-9.2-8-14.5-11c-5.3-3.1-11-5.4-17.3-6.8
	c-6-1.6-12.2-2.5-18.6-2.5c-9.1,0-18.3,1.9-27.4,5.8c-8.9,3.7-17.1,9.6-24.4,17.8c-7.1,8-13,18.4-17.5,31.2
	c-4.4,12.8-6.6,28.2-6.6,46.3c0,17.3,2.2,32.5,6.6,45.5c4.4,12.8,10.2,23.5,17.5,32c7.3,8.4,15.6,14.7,24.9,18.9
	c9.5,4.2,19.2,6.3,29,6.3c13.1,0,25.7-4.2,37.8-12.6s22.7-21.2,32-38.3c3.1,10.4,7.3,18.5,12.6,24.4c5.3,5.8,10.7,10.3,16.2,13.4
	c5.7,2.9,11,4.7,15.9,5.5c5.1,0.7,8.9,1.1,11.5,1.1c14.2,0,26.8-2.6,37.8-7.9c11.1-5.5,20.5-13.2,28.2-23.3s13.5-22.3,17.5-36.7
	c4-14.4,6-30.8,6-49l0,0c0-20.4-2.6-39.3-7.7-56.4c-5.1-17.2-12.1-32.6-21.1-46.3c-8.9-13.7-19.5-25.7-31.8-35.9
	c-12.2-10.4-25.6-19.1-40-26c-14.2-6.9-29.3-12.1-45.2-15.6C417,98,401.1,96.3,385,96.3c-22.5,0-43.3,2.9-62.4,8.8
	c-19,5.7-36.2,13.5-51.8,23.6c-15.5,10-29.2,22-41.1,35.9c-11.9,13.7-21.8,28.5-29.9,44.4c-7.9,15.9-13.9,32.6-18.1,50.1
	c-4,17.5-6,35.1-6,52.6c0,24.5,3.8,48.2,11.5,71.2c7.7,22.8,19.4,43.2,35.1,61.1c15.7,17.7,35.5,32,59.4,42.7
	c24.1,10.8,52.5,16.2,85.2,16.2c21.5,0,44.1-3.4,67.6-10.1c23.7-6.9,49-17.8,75.9-32.6l-19.7-41.1c-23.7,11.7-45.3,20.3-64.6,25.7
	c-19.4,5.3-37.6,7.9-54.8,7.9c-23.2,0-43.3-4-60.3-12.1c-16.8-8-30.7-18.6-41.6-31.8c-11-13.3-19.1-28.5-24.4-45.5
	c-5.3-17.2-7.9-34.9-7.9-53.1c0-13,1.4-25.9,4.1-38.9c2.7-13.1,6.8-25.7,12.3-37.5c5.7-12.1,12.6-23.2,20.8-33.4
	s17.7-19.1,28.5-26.6c11-7.7,23.3-13.6,37-17.8c13.7-4.4,28.7-6.6,44.9-6.6c20.8,0,39.9,2.8,57.2,8.5c17.5,5.5,32.5,13.8,44.9,24.9
	c12.6,11,22.4,24.7,29.3,41.4c6.9,16.4,10.4,35.6,10.4,57.5c0,3.7-0.1,8.2-0.3,13.7c0,5.5-0.4,11.3-1.1,17.5
	c-0.5,6.2-1.6,12.5-3,18.9c-1.3,6.2-3.2,11.9-5.8,17c-2.6,4.9-5.8,8.9-9.9,12.1c-3.8,3.1-8.7,4.7-14.5,4.7c-4.9,0-9-2.4-12.3-7.1
	s-4.9-12.6-4.9-23.6V206.4H431.8z M413.8,322.8c-4,10.4-9,18.3-15.1,23.6c-6,5.1-12.1,7.7-18.1,7.7c-4.2,0-8.2-1-12.1-3
	c-3.7-2.2-6.9-5.4-9.9-9.6c-2.9-4.4-5.3-9.8-7.1-16.2c-1.6-6.6-2.5-14.1-2.5-22.7c0-8.8,0.7-16.7,2.2-23.8s3.6-13.1,6.3-18.1
	c2.9-5.1,6.4-9,10.4-11.8c4-2.9,8.5-4.4,13.4-4.4c9.5,0,20.3,6.1,32.3,18.3l0,0v60H413.8z"/>
</svg>
