<?xml version="1.0" encoding="utf-8"?>
<!-- Generator: Adobe Illustrator 19.1.0, SVG Export Plug-In . SVG Version: 6.00 Build 0)  -->
<svg version="1.1"
	 id="svg4145" xmlns:rdf="http://www.w3.org/1999/02/22-rdf-syntax-ns#" xmlns:svg="http://www.w3.org/2000/svg" xmlns:cc="http://creativecommons.org/ns#" xmlns:dc="http://purl.org/dc/elements/1.1/"
	 xmlns="http://www.w3.org/2000/svg" xmlns:xlink="http://www.w3.org/1999/xlink" x="0px" y="0px" viewBox="-20 -102.7 800 800"
	 style="enable-background:new -20 -102.7 800 800;" xml:space="preserve">
<style type="text/css">
	.st0{fill:#30383B;}
	.st1{opacity:0.42;fill:url(#SVGID_1_);enable-background:new    ;}
	.st2{fill:#FFFFFF;}
</style>
<circle id="circle4973" class="st0" cx="380" cy="297.3" r="400"/>
<linearGradient id="SVGID_1_" gradientUnits="userSpaceOnUse" x1="319.0591" y1="231.3526" x2="-109.7716" y2="-149.351" gradientTransform="matrix(1 0 0 -1 0 593.84)">
	<stop  offset="0" style="stop-color:#000000"/>
	<stop  offset="1" style="stop-color:#000000;stop-opacity:0"/>
</linearGradient>
<path class="st1" d="M-20,300.6c1.7,214.8,172.8,389.3,386.2,396.5c2.4,0.1,4.7,0.1,7.1,0.1l229.1-229.1V123H157.6L-20,300.6z"/>
<path id="rect4208" class="st2" d="M157.6,123v345.1h444.8V123H157.6L157.6,123z M202,168.7h356v253.8H202V168.7L202,168.7z
	 M289.3,200.4c-18.7,0-33.8,15.1-33.8,33.8l0,0c0,18.7,15.1,33.8,33.8,33.8s33.8-15.1,33.8-33.8
	C323.1,215.5,307.9,200.4,289.3,200.4L289.3,200.4z M424.2,238l-54,76.5l-29.1-28.2l-84.5,88.4h259.7L424.2,238L424.2,238z"/>
</svg>
