<?xml version="1.0" encoding="utf-8"?>
<!-- Generator: Adobe Illustrator 19.1.0, SVG Export Plug-In . SVG Version: 6.00 Build 0)  -->
<svg version="1.1"
	 id="svg4145" xmlns:rdf="http://www.w3.org/1999/02/22-rdf-syntax-ns#" xmlns:svg="http://www.w3.org/2000/svg" xmlns:cc="http://creativecommons.org/ns#" xmlns:dc="http://purl.org/dc/elements/1.1/"
	 xmlns="http://www.w3.org/2000/svg" xmlns:xlink="http://www.w3.org/1999/xlink" x="0px" y="0px" viewBox="-20 -102.7 800 800"
	 style="enable-background:new -20 -102.7 800 800;" xml:space="preserve">
<style type="text/css">
	.st0{fill:#1D7B33;}
	.st1{opacity:0.465;fill:url(#SVGID_1_);stroke:#273B50;stroke-width:3.270222e-02;enable-background:new    ;}
	.st2{fill:#FFFFFF;}
</style>
<ellipse id="ellipse5544" class="st0" cx="380" cy="297.3" rx="400" ry="400"/>
<linearGradient id="SVGID_1_" gradientUnits="userSpaceOnUse" x1="73.5171" y1="612.5598" x2="364.5171" y2="311.5598" gradientTransform="matrix(1 0 0 1 0 -1.44)">
	<stop  offset="0" style="stop-color:#000000;stop-opacity:0"/>
	<stop  offset="1" style="stop-color:#000000"/>
</linearGradient>
<path class="st1" d="M577.5,229.8l41.8-41.4l-25.5-44.2l-53.6,19.4c-8.1-9.6-16.9-18.5-26.6-26.5l19.3-53.9l-44.2-25.5l-41.5,42
	c-10.8-3.5-22-6.5-31.6-8.3l-10.2-55.9h-51l-54.2,56.6l-28.9-34.4l-44.2,25.5L-18.7,329.3C-3.2,524.7,152.6,680.5,348,696
	l245.9-245.9l25.5-44.2L585,377l56.7-54.3v-51l-55.8-9.9C583.9,250.9,581.1,240.2,577.5,229.8z"/>
<path class="st2" d="M575.9,225.3l43.4-36.9l-25.5-44.2l-53.6,19.4c-8.1-9.6-17-18.5-26.6-26.5l19.3-53.9l-44.2-25.5L452,101.5
	c-11.8-4.4-24-7.8-36.3-10l-10.2-55.9h-51l-9.9,56c-12.5,2.1-24.8,5.3-36.8,9.6l-36.4-43.3l-44.2,25.5l18.9,52.8
	c-10,8.2-19.2,17.2-27.5,27.1l-52.3-19l-25.5,44.2l41.9,35.6c-4.7,12.3-8.2,25.1-10.6,38.1l-53.7,9.5v51l53.7,9.8
	c2.1,13.1,5.5,26,10.1,38.5l-41.5,34.9l25.5,44.2l50.9-18.2c8.5,10.4,18,19.9,28.4,28.5L227.1,511l44.2,25.5l34.9-41.1
	c12.6,4.7,25.6,8.2,38.9,10.4l9.4,53.1h51l9.7-53.2c13.1-2.3,26-5.9,38.4-10.7l35.2,41.5L533,511l-18.8-51.8
	c10-8.4,19.3-17.7,27.6-27.8l52.1,18.7l25.5-44.2l-42.9-36.1c4.4-12,7.8-24.5,9.9-37.1l55.2-10v-51l-55.8-9.9
	C583.6,249.4,580.3,237.2,575.9,225.3z M461.8,297.3c0,45.1-36.6,81.7-81.7,81.7l0,0c-45.1,0-81.7-36.6-81.7-81.7l0,0
	c0-45.1,36.6-81.7,81.7-81.7l0,0C425.2,215.5,461.8,252.1,461.8,297.3L461.8,297.3z"/>
<circle class="st2" cx="380" cy="297.3" r="49"/>
</svg>
