<?xml version="1.0" encoding="utf-8"?>
<!-- Generator: Adobe Illustrator 19.1.0, SVG Export Plug-In . SVG Version: 6.00 Build 0)  -->
<svg version="1.1"
	 id="svg5589" xmlns:rdf="http://www.w3.org/1999/02/22-rdf-syntax-ns#" xmlns:svg="http://www.w3.org/2000/svg" xmlns:cc="http://creativecommons.org/ns#" xmlns:dc="http://purl.org/dc/elements/1.1/"
	 xmlns="http://www.w3.org/2000/svg" xmlns:xlink="http://www.w3.org/1999/xlink" x="0px" y="0px" viewBox="-20 -102.7 800 800"
	 style="enable-background:new -20 -102.7 800 800;" xml:space="preserve">
<style type="text/css">
	.st0{fill:#1D7B33;}
	.st1{fill:url(#SVGID_1_);}
	.st2{fill:#FFFFFF;}
</style>
<circle id="circle6139" class="st0" cx="380" cy="297.3" r="400"/>
<linearGradient id="SVGID_1_" gradientUnits="userSpaceOnUse" x1="423.8856" y1="283.8799" x2="103.8857" y2="602.8799" gradientTransform="matrix(1 0 0 1 0 -1.44)">
	<stop  offset="0" style="stop-color:#000000;stop-opacity:0.42"/>
	<stop  offset="1" style="stop-color:#000000;stop-opacity:0"/>
</linearGradient>
<path class="st1" d="M586.6,180.2h-16.3l-27.9,28.1h-39l20.1-28.1l58.5-61.1c1.5-0.2,2.5-1.6,2.3-3.1l-5-33.4
	c-0.2-1.3-1.3-2.3-2.6-2.3l0,0c-0.2,0-0.4,0-0.6,0l-43.2,6.5L505.7,114L486,93.7L464,97l-27.3,27.3L417.1,104l-20.9,3.1L369,134.5
	l-19.7-20.3l-19.7,3l-27.3,27.3l-19.7-20.3L170.8,141c-1.3,0.2-2.2,1.2-2.3,2.5L-18.6,330.6C-1.7,535.9,170.3,697.3,380,697.3
	c8.1,0,16.2-0.2,24.2-0.7l182.1-182.1V220.8c0.3-0.4,0.4-0.8,0.5-1.3c1.4-0.1,2.5-1.3,2.5-2.7V183
	C589.3,181.4,588.1,180.2,586.6,180.2z"/>
<path id="rect4158" class="st2" d="M576.7,80.1c-0.2,0-0.4,0-0.6,0l-43.2,6.5l33,34.8L582,119c1.5-0.2,2.5-1.6,2.3-3.1l-5-33.4
	C579.1,81.2,578,80.2,576.7,80.1z M486,93.7L464,97l33,34.8l22.6-3.4L486,93.7z M417.1,104l-20.9,3.1l33,34.8l21.5-3.2L417.1,104z
	 M349.4,114.2l-19.7,3l33,34.8l20.4-3.1L349.4,114.2z M282.7,124.2L170.9,141c-1.5,0.2-2.5,1.6-2.3,3.1l5,33.4
	c0.1,0.4,0.2,0.8,0.4,1.1v4.4v33.8v2.8h9v294.9h403.3v-295h0.2c1.5,0,2.8-1.2,2.8-2.8v-33.8c0-1.5-1.2-2.8-2.8-2.8h-16.3l-19.6,28.1
	h-47.3l20.1-28.1h-22.8L481,208.3h-47.3l20.1-28.1h-21.7l-19.6,28.1h-47.3l20.1-28.1h-20.6l-19.6,28.1h-47.3l20.1-28.1h-62.5
	l-11.8-10.4l72.7-10.9L282.7,124.2z M190.9,156.4c2.2,0,4,1.8,4,4l0,0c0,2.2-1.8,4-4,4s-4-1.8-4-4
	C186.9,158.2,188.7,156.4,190.9,156.4z M190.9,202.9c2.2,0,4,1.8,4,4l0,0c0,0.5-0.1,1-0.3,1.4l0,0c0,0.1-0.1,0.2-0.2,0.4
	c-0.1,0.1-0.1,0.2-0.2,0.3c0,0,0,0,0,0.1c-0.1,0.1-0.1,0.2-0.2,0.3c0,0,0,0-0.1,0.1c-0.1,0.1-0.1,0.2-0.2,0.2l0,0
	c-0.1,0.1-0.2,0.2-0.2,0.2l0,0c-0.1,0.1-0.2,0.1-0.3,0.2c0,0,0,0-0.1,0c-0.1,0.1-0.2,0.1-0.3,0.2c0,0-0.1,0-0.1,0.1
	c-0.1,0-0.2,0.1-0.3,0.1h-0.1c-0.1,0-0.2,0.1-0.2,0.1s-0.1,0-0.2,0.1c-0.1,0-0.2,0-0.2,0.1h-0.1c-0.1,0-0.2,0-0.3,0h-0.1
	c-0.1,0-0.2,0-0.3,0c0,0,0,0-0.1,0c-1.2,0-2.4-0.6-3.1-1.5c-0.1-0.1-0.2-0.2-0.2-0.3l0,0c-0.1-0.1-0.1-0.2-0.2-0.3
	c-0.1-0.1-0.1-0.2-0.2-0.4l0,0c-0.2-0.5-0.3-0.9-0.3-1.4C186.9,204.7,188.7,202.9,190.9,202.9z M249.3,202.9c2.2,0,4,1.8,4,4l0,0
	c0,0.5-0.1,1-0.3,1.4l0,0c0,0.1-0.1,0.2-0.2,0.4c-0.1,0.1-0.1,0.2-0.2,0.3c0,0,0,0,0,0.1c-0.1,0.1-0.1,0.2-0.2,0.3c0,0,0,0-0.1,0.1
	c-0.1,0.1-0.1,0.2-0.2,0.2l0,0c-0.1,0.1-0.2,0.2-0.2,0.2l0,0c-0.1,0.1-0.2,0.1-0.3,0.2c0,0,0,0-0.1,0c-0.1,0.1-0.2,0.1-0.3,0.2
	c0,0-0.1,0-0.1,0.1c-0.1,0-0.2,0.1-0.3,0.1h-0.1c-0.1,0-0.2,0.1-0.2,0.1s-0.1,0-0.2,0.1c-0.1,0-0.2,0-0.2,0.1H250
	c-0.1,0-0.2,0-0.3,0h-0.1c-0.1,0-0.2,0-0.3,0c0,0,0,0-0.1,0s-0.3,0-0.4,0c-0.3,0-0.5-0.1-0.8-0.2c-0.1,0-0.3-0.1-0.4-0.1
	c-0.1-0.1-0.2-0.1-0.4-0.2c-0.3-0.2-0.7-0.4-0.9-0.7c-0.4-0.4-0.7-0.8-0.9-1.3l0,0c-0.2-0.5-0.3-0.9-0.3-1.4c0-0.1,0-0.3,0-0.4
	C245.5,204.4,247.2,202.9,249.3,202.9z M194.4,263.7h379.7v8.7H463.4v68.3h110.8v8.7H445.9v34.2h128.3v8.7H445.9v34.2h128.3v8.7
	H194.4v-8.7h242.7v-34.2H194.4v-8.7h242.7v-34.2H194.4v-8.7h124.3v-68.3H194.4V263.7z M327.5,272.4v68.3h127.1v-68.3H327.5
	L327.5,272.4z M194.4,468.6h379.7v8.7H194.4V468.6z"/>
</svg>
