<?xml version="1.0" encoding="utf-8"?>
<!-- Generator: Adobe Illustrator 19.1.0, SVG Export Plug-In . SVG Version: 6.00 Build 0)  -->
<svg version="1.1"
	 id="svg4145" xmlns:rdf="http://www.w3.org/1999/02/22-rdf-syntax-ns#" xmlns:svg="http://www.w3.org/2000/svg" xmlns:cc="http://creativecommons.org/ns#" xmlns:dc="http://purl.org/dc/elements/1.1/"
	 xmlns="http://www.w3.org/2000/svg" xmlns:xlink="http://www.w3.org/1999/xlink" x="0px" y="0px" viewBox="-20 -102.7 800 800"
	 style="enable-background:new -20 -102.7 800 800;" xml:space="preserve">
<style type="text/css">
	.st0{fill:#428EB2;}
	.st1{opacity:0.42;fill:url(#SVGID_1_);enable-background:new    ;}
	.st2{fill:#FFFFFF;}
</style>
<circle id="circle4141" class="st0" cx="380" cy="296.4" r="400"/>
<linearGradient id="SVGID_1_" gradientUnits="userSpaceOnUse" x1="338.4672" y1="338.0579" x2="-69.4776" y2="754.6227">
	<stop  offset="0" style="stop-color:#000000"/>
	<stop  offset="1" style="stop-color:#000000;stop-opacity:0"/>
</linearGradient>
<path class="st1" d="M189.8,100.1L-19.8,309.7c6.9,211.3,177.7,381.2,389.3,386.6l203.7-203.7v-329l-64.3-63.5H189.8z"/>
<path id="path4160" class="st2" d="M189.8,100.1v392.5h383.4v-329l-64.3-63.5H189.8z M285.2,127.9l192.6,0.1v118.7H285.2V127.9z
	 M411,150.4v73.8h42.5v-73.8H411z M243.2,309.8l276.6,0.1v150.6H243.2V309.8z M271.2,335.1v18h220.6v-18H271.2z M271.2,375.8v18
	h220.6v-18H271.2z M271.2,418.9v18h220.6v-18H271.2z"/>
</svg>
