<?xml version="1.0" encoding="utf-8"?>
<!-- Generator: Adobe Illustrator 19.1.0, SVG Export Plug-In . SVG Version: 6.00 Build 0)  -->
<svg version="1.1"
	 id="svg4145" xmlns:rdf="http://www.w3.org/1999/02/22-rdf-syntax-ns#" xmlns:svg="http://www.w3.org/2000/svg" xmlns:cc="http://creativecommons.org/ns#" xmlns:dc="http://purl.org/dc/elements/1.1/"
	 xmlns="http://www.w3.org/2000/svg" xmlns:xlink="http://www.w3.org/1999/xlink" x="0px" y="0px" viewBox="-20 -102.7 800 800"
	 style="enable-background:new -20 -102.7 800 800;" xml:space="preserve">
<style type="text/css">
	.st0{fill:#DA5414;}
	.st1{opacity:0.42;fill:url(#SVGID_1_);enable-background:new    ;}
	.st2{fill:#FFFFFF;}
</style>
<circle id="circle4141" class="st0" cx="380" cy="297.3" r="400"/>
<linearGradient id="SVGID_1_" gradientUnits="userSpaceOnUse" x1="338.4771" y1="254.8924" x2="-69.4677" y2="-161.6723" gradientTransform="matrix(1 0 0 -1 0 593.84)">
	<stop  offset="0" style="stop-color:#000000"/>
	<stop  offset="1" style="stop-color:#000000;stop-opacity:0"/>
</linearGradient>
<path class="st1" d="M189.8,101L-19.8,310.6c6.9,211.3,177.7,381.2,389.3,386.6l203.7-203.7v-329L508.9,101L189.8,101L189.8,101z"/>
<path id="path4160" class="st2" d="M189.8,101v392.5h383.4v-329L508.9,101C508.9,101,189.8,101,189.8,101z M285.2,128.8l192.6,0.1
	v118.7H285.2V128.8z M411,151.3v73.8h42.5v-73.8H411z M243.2,310.7l276.6,0.1v150.6H243.2V310.7z M271.2,336v18h220.6v-18H271.2z
	 M271.2,376.7v18h220.6v-18H271.2z M271.2,419.8v18h220.6v-18H271.2z"/>
</svg>
