<?xml version="1.0" encoding="UTF-8"?>
<svg xmlns:rdf="http://www.w3.org/1999/02/22-rdf-syntax-ns#" xmlns:svg="http://www.w3.org/2000/svg" xmlns:cc="http://creativecommons.org/ns#" xmlns:dc="http://purl.org/dc/elements/1.1/" xmlns="http://www.w3.org/2000/svg" xmlns:xlink="http://www.w3.org/1999/xlink" version="1.1" id="svg6264" x="0px" y="0px" viewBox="-20 -102.7 800 800" style="enable-background:new -20 -102.7 800 800;" xml:space="preserve">
<style type="text/css">
	.st0{fill:#1B8700;}
	.st1{fill:url(#SVGID_1_);}
	.st2{fill:#FFFFFF;}
</style>
<circle id="circle6820" class="st0" cx="380" cy="296" r="400"></circle>
<linearGradient id="SVGID_1_" gradientUnits="userSpaceOnUse" x1="379.1512" y1="314.5523" x2="87.1512" y2="17.5524" gradientTransform="matrix(1 0 0 -1 0 593.84)">
	<stop offset="0" style="stop-color:#000000;stop-opacity:0.42"></stop>
	<stop offset="1" style="stop-color:#000000;stop-opacity:0"></stop>
</linearGradient>
<path class="st1" d="M192.2,118.3L192.2,118.3L-18.6,329.2c15.2,184.9,156.2,334.2,337.2,362.1l249.1-249.1V118.4l-193.3,46.9  L192.2,118.3z"></path>
<polygon class="st2" points="240.5,374.2 328.6,397.4 331,387 242.9,364.2 "></polygon>
<polygon class="st2" points="240.5,295.4 328.6,318.6 331,308.1 242.9,285.4 "></polygon>
<polygon class="st2" points="331,237.1 242.9,214.4 240.5,224.3 328.6,247.6 "></polygon>
<polygon class="st2" points="516.5,224.3 514.2,214.4 426,237.1 428.5,247.6 "></polygon>
<path class="st2" d="M192.2,118.3L192.2,118.3v323.8l181.9,45.3l193.6-45.3V118.3l-193.3,46.9L192.2,118.3z M368.1,477l-164.7-41.8  V131.4l0,0l165.2,43.7L368.1,477z M379.7,175.1l176.9-43.7l0.1,303.5l-177.5,41.8L379.7,175.1z"></path>
<polygon class="st2" points="426,387 428.5,397.4 516.5,374.2 514.2,364.2 "></polygon>
<polygon class="st2" points="426,308.1 428.5,318.6 516.5,295.4 514.2,285.4 "></polygon>
</svg>