<?xml version="1.0" encoding="UTF-8"?>
<svg xmlns:rdf="http://www.w3.org/1999/02/22-rdf-syntax-ns#" xmlns:svg="http://www.w3.org/2000/svg" xmlns:cc="http://creativecommons.org/ns#" xmlns:dc="http://purl.org/dc/elements/1.1/" xmlns="http://www.w3.org/2000/svg" xmlns:xlink="http://www.w3.org/1999/xlink" version="1.1" id="svg4145" x="0px" y="0px" viewBox="-20 -102.7 800 800" style="enable-background:new -20 -102.7 800 800;" xml:space="preserve">
<style type="text/css">
	.st0{fill:#1B8700;}
	.st1{opacity:0.42;fill:url(#SVGID_1_);enable-background:new    ;}
	.st2{fill:#FFFFFF;}
</style>
<circle id="circle4141" class="st0" cx="381.5" cy="297.3" r="400"></circle>
<linearGradient id="SVGID_1_" gradientUnits="userSpaceOnUse" x1="339.9771" y1="254.8924" x2="-67.9677" y2="-161.6723" gradientTransform="matrix(1 0 0 -1 0 593.84)">
	<stop offset="0" style="stop-color:#000000"></stop>
	<stop offset="1" style="stop-color:#000000;stop-opacity:0"></stop>
</linearGradient>
<path class="st1" d="M191.3,101L-18.3,310.6c6.9,211.3,177.7,381.2,389.3,386.6l203.7-203.7v-329L510.4,101L191.3,101L191.3,101z"></path>
<path id="path4160" class="st2" d="M191.3,101v392.5h383.4v-329L510.4,101C510.4,101,191.3,101,191.3,101z M286.7,128.8l192.6,0.1  v118.7H286.7V128.8z M412.5,151.3v73.8H455v-73.8H412.5z M244.7,310.7l276.6,0.1v150.6H244.7V310.7z M272.7,336v18h220.6v-18H272.7z   M272.7,376.7v18h220.6v-18H272.7z M272.7,419.8v18h220.6v-18H272.7z"></path>
</svg>