<?xml version="1.0" encoding="utf-8"?>
<!-- Generator: Adobe Illustrator 19.1.0, SVG Export Plug-In . SVG Version: 6.00 Build 0)  -->
<svg version="1.1"
	 id="svg6739" xmlns:rdf="http://www.w3.org/1999/02/22-rdf-syntax-ns#" xmlns:svg="http://www.w3.org/2000/svg" xmlns:cc="http://creativecommons.org/ns#" xmlns:dc="http://purl.org/dc/elements/1.1/"
	 xmlns="http://www.w3.org/2000/svg" xmlns:xlink="http://www.w3.org/1999/xlink" x="0px" y="0px" viewBox="-20 -102.7 800 800"
	 style="enable-background:new -20 -102.7 800 800;" xml:space="preserve">
<style type="text/css">
	.st0{fill:#30383B;}
	.st1{fill:url(#SVGID_1_);}
	.st2{fill:#FFFFFF;}
</style>
<circle id="circle8151" class="st0" cx="380" cy="297.3" r="400"/>
<linearGradient id="SVGID_1_" gradientUnits="userSpaceOnUse" x1="352.974" y1="357.2548" x2="44.974" y2="47.2547" gradientTransform="matrix(1 0 0 -1 0 593.84)">
	<stop  offset="0" style="stop-color:#000000;stop-opacity:0.42"/>
	<stop  offset="1" style="stop-color:#000000;stop-opacity:0"/>
</linearGradient>
<path class="st1" d="M416.2,169.3l2.9-35.8c-18.7-4.3-35-6.2-49.4-6.2c-43.2,0-69.7,16.8-95,34.8l-34.3,34.8v-73.4H196l-214,214
	c14,140.4,100.7,259.4,221.8,319c108.3-107.1,216.7-214.2,324-324.2l-4.3-191.6C502.6,160.6,474.9,175.8,416.2,169.3z"/>
<rect id="rect4147" x="196" y="123.5" class="st2" width="44.3" height="347.5"/>
<path id="path4149" class="st2" d="M274.7,162.1c33.7-23.9,69.6-45.8,144.4-28.6l-2.9,35.8c58.7,6.5,86.3-8.7,107.3-28.6l4.3,191.6
	c-29.5,30.4-71.2,20.7-104.4,10l8.6-25.7c-65.9-26.1-111.8-15.1-147.3,15.7L274.7,162.1z"/>
</svg>
