<?xml version="1.0" encoding="utf-8"?>
<!-- Generator: Adobe Illustrator 19.1.0, SVG Export Plug-In . SVG Version: 6.00 Build 0)  -->
<svg version="1.1"
	 id="svg2" xmlns:rdf="http://www.w3.org/1999/02/22-rdf-syntax-ns#" xmlns:svg="http://www.w3.org/2000/svg" xmlns:cc="http://creativecommons.org/ns#" xmlns:dc="http://purl.org/dc/elements/1.1/"
	 xmlns="http://www.w3.org/2000/svg" xmlns:xlink="http://www.w3.org/1999/xlink" x="0px" y="0px" viewBox="-20 -102.7 800 800"
	 style="enable-background:new -20 -102.7 800 800;" xml:space="preserve">
<style type="text/css">
	.st0{fill:#445B24;}
	.st1{opacity:0.42;fill:url(#SVGID_1_);enable-background:new    ;}
	.st2{fill:#FFFFFF;}
</style>
<circle id="circle4138" class="st0" cx="380" cy="297.3" r="400"/>
<linearGradient id="SVGID_1_" gradientUnits="userSpaceOnUse" x1="432.2598" y1="272.6764" x2="104.2598" y2="592.6764" gradientTransform="matrix(1 0 0 1 0 -1.44)">
	<stop  offset="0" style="stop-color:#000000"/>
	<stop  offset="1" style="stop-color:#000000;stop-opacity:0"/>
</linearGradient>
<path class="st1" d="M228.2,98.6L-17.3,344.1c23.1,197.8,190.4,351.5,394,353.1L578,495.9l-0.6-126.2l-45-271.1
	C532.4,98.6,228.2,98.6,228.2,98.6z"/>
<path id="path4170" class="st2" d="M228.2,98.6l-45.1,271.1l-0.6,126.2h395.6l-0.6-126.2L532.4,98.6H228.2L228.2,98.6z M241.2,115.7
	h278.1l43.8,253.6H197.4L241.2,115.7L241.2,115.7z M379.2,154.3c-67.7,0-122.5,39-122.5,87.1s54.9,87.1,122.5,87.1
	s122.5-39,122.5-87.1S446.9,154.3,379.2,154.3L379.2,154.3z M379.2,170.2c56.8,0,102.8,31.9,102.8,71.3s-46,71.3-102.8,71.3
	s-102.8-31.9-102.8-71.3S322.5,170.2,379.2,170.2L379.2,170.2z M379.2,217.3c-12.5,0-22.6,7.2-22.6,16.1c0,8.9,10.1,16.1,22.6,16.1
	s22.6-7.2,22.6-16.1C401.9,224.5,391.7,217.3,379.2,217.3z M197.4,385.9h365.7v94H197.4V385.9z M499.6,416.8c-8.8,0-16,7.2-16,16
	s7.2,16,16,16s16-7.2,16-16S508.4,416.8,499.6,416.8z"/>
</svg>
